<svg width="410" height="308" viewBox="0 0 410 308" fill="none" xmlns="http://www.w3.org/2000/svg">
<path d="M318.708 82.9053H158.808V205.9H318.708V82.9053Z" fill="#AACEEE"/>
<path d="M319.349 206.545H158.168V82.2666H319.349V206.545ZM159.449 205.261H318.068V83.5499H159.449V205.261Z" fill="white"/>
<path d="M204.6 163.523H188.585C188.585 163.523 183.913 161.323 182.511 153.733H199.263C199.26 153.733 201.93 161.115 204.6 163.523Z" fill="#1F1F1F"/>
<path d="M182.845 147.614C182.845 147.614 179.641 156.972 188.718 161.518H206.335C206.335 161.518 199.929 157.506 199.662 147.614H182.845Z" fill="white"/>
<path d="M193.922 150.838H184.856V151.608H193.922V150.838Z" fill="#1F1F1F"/>
<path d="M192.041 154.046H185.902V154.816H192.041V154.046Z" fill="#1F1F1F"/>
<path d="M193.366 157.244H187.76V158.014H193.366V157.244Z" fill="#1F1F1F"/>
<path d="M273.419 157.424L276.089 161.969H259.538C259.538 161.969 254.466 157.157 254.999 152.077H270.482L273.419 157.424Z" fill="#1F1F1F"/>
<path d="M254.333 145.258C254.333 145.258 251.929 155.15 260.473 160.232H277.291C277.291 160.232 272.219 154.885 271.151 145.258H254.333Z" fill="white"/>
<path d="M258.61 151.782L256.698 150.768L257.06 150.088L258.331 150.763L260.268 147.596L260.924 147.999L258.61 151.782Z" fill="#1F1F1F"/>
<path d="M259.909 156.623L258.008 155.324L258.441 154.688L259.702 155.547L261.621 152.665L262.262 153.091L259.909 156.623Z" fill="#1F1F1F"/>
<path d="M282.387 117.897L285.058 122.443H268.506C268.506 122.443 263.435 117.63 263.968 112.551H279.451L282.387 117.897Z" fill="#1F1F1F"/>
<path d="M263.302 105.731C263.302 105.731 260.898 115.623 269.442 120.705H286.259C286.259 120.705 281.188 115.359 280.12 105.731H263.302Z" fill="white"/>
<path d="M267.579 112.256L265.667 111.242L266.028 110.562L267.299 111.237L269.237 108.069L269.893 108.472L267.579 112.256Z" fill="#1F1F1F"/>
<path d="M268.878 117.096L266.977 115.798L267.41 115.161L268.67 116.021L270.59 113.139L271.228 113.565L268.878 117.096Z" fill="#1F1F1F"/>
<path d="M205.887 154.701L204.903 154.411C205.026 153.992 208.003 144.059 214.983 137.299C218.007 134.37 221.725 132.099 225.298 130.846C225.372 130.202 225.487 129.514 225.649 128.778C227.163 121.842 233.044 117.266 242.651 115.549C249.816 114.268 256.632 115.023 256.701 115.031L256.586 116.049C256.519 116.042 249.833 115.303 242.812 116.563C233.526 118.229 228.088 122.412 226.651 128.996C226.535 129.522 226.446 130.022 226.376 130.497C228.444 129.889 230.43 129.643 232.173 129.83C234.461 130.076 236.247 131.072 237.336 132.71C238.658 134.696 238.599 136.757 237.177 138.359C235.268 140.507 231.532 141.144 228.849 139.773C227.268 138.967 224.957 136.929 225.203 131.958C221.91 133.185 218.502 135.315 215.693 138.033C208.913 144.606 205.915 154.601 205.887 154.701ZM226.256 131.601C225.895 136.306 227.929 138.156 229.316 138.865C231.804 140.135 234.994 139.278 236.414 137.681C237.521 136.436 237.546 134.873 236.485 133.282C235.558 131.886 234.069 131.07 232.065 130.854C230.333 130.667 228.334 130.941 226.256 131.601Z" fill="white"/>
<path d="M184.059 104.871L183.734 103.898C184.992 103.477 186.899 102.753 188.905 101.835C188.213 100.911 187.89 99.83 187.962 98.6493C188.136 95.767 190.678 92.7332 192.446 91.65C194.276 90.5284 195.808 90.3051 197 90.9878C198.455 91.8169 198.817 93.6854 198.807 94.5555C198.768 97.4738 194.568 100.215 190.658 102.14C191.055 102.376 191.988 102.517 193.241 102.302C194.765 102.04 198.663 100.872 201.905 95.7002C202.048 95.4744 202.338 95.3948 202.576 95.518C202.812 95.6412 202.914 95.9261 202.812 96.1725C201.999 98.0898 201.192 101.147 201.935 101.94C202.256 102.281 202.95 102.13 203.478 101.942C204.708 101.506 205.946 100.577 207.378 99.5015C207.665 99.2859 207.96 99.0651 208.265 98.8393C208.442 98.7084 208.68 98.7058 208.862 98.829C209.041 98.9548 209.123 99.1806 209.064 99.3911C208.941 99.83 208.713 101.195 209.254 101.699C209.684 102.096 210.581 101.886 211.258 101.639C212.98 101.011 213.039 100.97 214.53 99.9327L214.835 99.7222C215.04 99.581 215.317 99.6067 215.491 99.7838C215.665 99.9609 215.688 100.241 215.542 100.443C215.468 100.551 215.273 100.926 215.404 101.162C215.481 101.303 215.896 101.763 217.925 101.686C221.938 101.534 231.64 100.669 231.737 100.662L231.829 101.683C231.732 101.691 222.002 102.558 217.966 102.712C216.057 102.784 214.925 102.435 214.502 101.647C214.438 101.532 214.397 101.411 214.371 101.29C213.456 101.904 213.075 102.071 211.611 102.605C210.235 103.108 209.208 103.056 208.557 102.451C207.988 101.922 207.862 101.103 207.885 100.407C206.43 101.501 205.164 102.438 203.821 102.913C202.635 103.333 201.751 103.244 201.19 102.646C200.431 101.837 200.539 100.261 200.872 98.8059C197.887 102.184 194.781 103.079 193.415 103.313C191.926 103.57 190.594 103.405 189.94 102.887C189.835 102.802 189.733 102.715 189.633 102.628C186.781 103.952 184.305 104.791 184.059 104.871ZM195.516 91.6346C194.655 91.6346 193.712 92.0787 192.985 92.5253C191.447 93.4672 189.141 96.211 188.987 98.7109C188.926 99.7222 189.218 100.618 189.861 101.385C193.781 99.4938 197.753 96.9425 197.784 94.5375C197.794 93.7983 197.454 92.4226 196.495 91.8759C196.195 91.7065 195.862 91.6346 195.516 91.6346Z" fill="white"/>
<path d="M243.802 105.999L179.74 109.134L179.79 110.159L243.852 107.024L243.802 105.999Z" fill="white"/>
<path d="M179.554 183.647L179.316 182.649C180.097 182.461 181.356 182.084 182.614 181.555C182.03 180.783 181.904 179.972 181.922 179.364C181.96 178.083 182.698 176.694 183.718 175.986C184.966 175.121 185.878 175.288 186.427 175.578C187.306 176.047 187.767 177.148 187.757 177.949C187.734 179.589 186.245 180.865 184.533 181.792C184.971 181.971 185.579 182.1 186.265 181.982C187.419 181.784 188.461 180.963 189.363 179.543C189.515 179.304 189.83 179.233 190.068 179.384C190.306 179.535 190.378 179.851 190.23 180.09C190.227 180.095 189.789 180.837 190.058 181.299C190.199 181.537 190.678 181.928 192.328 181.863C193.815 181.804 204.298 181.188 204.403 181.181L204.462 182.205C204.029 182.23 193.861 182.829 192.367 182.888C190.696 182.952 189.622 182.592 189.169 181.81C189.123 181.73 189.084 181.65 189.056 181.568C188.264 182.351 187.388 182.826 186.437 182.99C185.156 183.211 184.026 182.787 183.411 182.338C181.65 183.129 179.933 183.557 179.554 183.647ZM185.479 176.373C185.138 176.373 184.746 176.527 184.305 176.833C183.654 177.285 182.98 178.309 182.95 179.397C182.932 180.054 183.144 180.631 183.585 181.119C185.263 180.293 186.719 179.199 186.734 177.939C186.739 177.51 186.47 176.766 185.948 176.489C185.804 176.409 185.648 176.373 185.479 176.373Z" fill="white"/>
<path d="M219.216 184.05L176.663 186.133L176.713 187.158L219.266 185.076L219.216 184.05Z" fill="white"/>
<path d="M202.026 189.209L176.656 190.494L176.708 191.519L202.077 190.235L202.026 189.209Z" fill="white"/>
<path d="M244.345 163.283H226.663V164.31H244.345V163.283Z" fill="white"/>
<path d="M244.345 166.877H226.663V167.904H244.345V166.877Z" fill="white"/>
<path d="M232.334 160.717C231.004 160.717 229.623 160.679 228.839 160.188C227.009 160.817 226.036 159.536 225.995 159.483L226.815 158.864C226.868 158.933 227.322 159.47 228.214 159.295C228.211 159.28 228.209 159.264 228.206 159.246C227.768 156.174 229.749 155.165 230.364 154.929C230.566 154.852 231.594 154.493 231.958 155.04C232.386 155.684 232.48 156.431 232.227 157.196C231.929 158.097 231.176 158.944 230.159 159.565C230.948 159.693 232.05 159.69 232.719 159.688H237.17V160.715H232.721C232.593 160.717 232.465 160.717 232.334 160.717ZM231.199 155.771C230.948 155.794 230.397 155.943 229.923 156.403C229.321 156.985 229.077 157.835 229.198 158.923C230.22 158.412 230.997 157.65 231.253 156.872C231.384 156.477 231.366 156.107 231.199 155.771Z" fill="white"/>
<path d="M385.667 111.929H365.912C365.605 111.929 365.356 111.68 365.356 111.372V102.014C365.356 101.709 365.605 101.457 365.912 101.457V100.431C365.041 100.431 364.331 101.142 364.331 102.014V111.372C364.331 111.678 364.083 111.929 363.775 111.929H344.021C343.713 111.929 343.465 111.68 343.465 111.372V110.302H342.44V111.372C342.44 112.245 343.15 112.956 344.021 112.956H353.63V113.223C353.938 113.223 354.186 113.472 354.186 113.78V123.138C354.186 123.443 353.938 123.695 353.63 123.695H333.876V124.722H353.63C354.109 124.722 354.54 124.506 354.83 124.167C355.111 124.429 355.486 124.588 355.898 124.588H364.221C364.119 124.796 364.062 125.03 364.062 125.279V134.637H365.087V125.279C365.087 124.973 365.336 124.722 365.643 124.722H385.398V123.695H377.075C377.177 123.487 377.233 123.253 377.233 123.004V113.646C377.233 113.4 377.175 113.166 377.075 112.956H385.664V111.929H385.667ZM355.347 123.004V113.646C355.347 113.341 355.596 113.089 355.903 113.089H375.658C375.965 113.089 376.214 113.338 376.214 113.646V123.004C376.214 123.31 375.965 123.561 375.658 123.561H355.903C355.596 123.559 355.347 123.31 355.347 123.004Z" fill="white"/>
<path d="M60.4853 133.895H41.5228C41.241 133.895 41.0103 133.664 41.0103 133.382V124.398C41.0103 124.116 41.241 123.885 41.5228 123.885V122.858C40.6747 122.858 39.9853 123.549 39.9853 124.398V133.382C39.9853 133.61 40.0366 133.828 40.1263 134.023H31.9135C31.0653 134.023 30.376 134.714 30.376 135.563V144.547C30.376 145.396 31.0653 146.087 31.9135 146.087H39.87C39.7803 146.282 39.7291 146.5 39.7291 146.728V155.712H40.7541V146.728C40.7541 146.446 40.9847 146.215 41.2666 146.215H60.2291V145.188H52.2725C52.3622 144.993 52.4135 144.775 52.4135 144.547V135.563C52.4135 135.335 52.3622 135.117 52.2725 134.922H60.4853V133.895ZM31.401 144.547V135.563C31.401 135.281 31.6316 135.05 31.9135 135.05H50.876C51.1578 135.05 51.3885 135.281 51.3885 135.563V144.547C51.3885 144.829 51.1578 145.06 50.876 145.06H31.9135C31.629 145.06 31.401 144.829 31.401 144.547Z" fill="white"/>
<path d="M143.221 85.591C143.221 78.471 137.46 72.7012 130.352 72.7012C123.243 72.7012 117.483 78.471 117.483 85.591C117.483 90.3906 120.104 94.5794 123.989 96.797V100.254C123.989 101.674 125.14 102.826 126.557 102.826H134.147C135.564 102.826 136.714 101.674 136.714 100.254V96.797C140.599 94.5794 143.221 90.3906 143.221 85.591Z" fill="#F98F4A"/>
<path d="M134.147 103.339H126.557C124.858 103.339 123.477 101.956 123.477 100.254V97.0919C119.456 94.6766 116.97 90.2953 116.97 85.5906C116.97 78.2012 122.974 72.1875 130.352 72.1875C137.729 72.1875 143.733 78.2012 143.733 85.5906C143.733 90.2953 141.248 94.6741 137.227 97.0919V100.254C137.227 101.953 135.846 103.339 134.147 103.339ZM130.352 73.2142C123.538 73.2142 117.995 78.7659 117.995 85.5906C117.995 90.0284 120.389 94.1505 124.243 96.3501L124.502 96.499V100.254C124.502 101.388 125.424 102.312 126.557 102.312H134.147C135.28 102.312 136.202 101.388 136.202 100.254V96.499L136.461 96.3501C140.315 94.1505 142.708 90.0284 142.708 85.5906C142.708 78.7659 137.166 73.2142 130.352 73.2142Z" fill="white"/>
<path d="M133.691 108.01C133.527 109.725 132.071 111.052 130.352 111.052C128.512 111.052 126.997 109.535 126.997 107.692C126.997 105.849 128.512 104.332 130.352 104.332C132.192 104.332 133.706 105.849 133.706 107.692L133.691 108.01Z" fill="#AACEEE"/>
<path d="M130.352 111.565C128.22 111.565 126.485 109.827 126.485 107.691C126.485 105.556 128.22 103.818 130.352 103.818C132.484 103.818 134.218 105.556 134.218 107.691L134.201 108.058C134.013 110.025 132.322 111.565 130.352 111.565ZM130.352 104.842C128.783 104.842 127.51 106.121 127.51 107.689C127.51 109.257 128.786 110.535 130.352 110.535C131.797 110.535 133.037 109.409 133.181 107.971L133.196 107.666C133.193 106.121 131.917 104.842 130.352 104.842Z" fill="white"/>
<path d="M126.129 107.954H134.572C135.274 107.954 135.846 107.384 135.846 106.678C135.846 105.975 135.277 105.402 134.572 105.402H126.129C125.427 105.402 124.855 105.972 124.855 106.678C124.858 107.384 125.427 107.954 126.129 107.954Z" fill="#AACEEE"/>
<path d="M134.575 108.467H126.131C125.147 108.467 124.345 107.666 124.345 106.678C124.345 105.689 125.145 104.889 126.131 104.889H134.575C135.559 104.889 136.361 105.689 136.361 106.678C136.361 107.666 135.559 108.467 134.575 108.467ZM126.129 105.918C125.708 105.918 125.368 106.259 125.368 106.68C125.368 107.101 125.708 107.443 126.129 107.443H134.572C134.992 107.443 135.333 107.101 135.333 106.68C135.333 106.259 134.992 105.918 134.572 105.918H126.129Z" fill="white"/>
<path d="M133.345 103.403H132.32V93.6443C131.664 93.5879 131.041 93.3774 130.503 93.0283C130.098 93.2722 129.637 93.4364 129.147 93.5083C128.919 93.5417 128.699 93.5648 128.486 93.575V103.403H127.461V93.5263C126.872 93.4339 126.367 93.2234 125.949 92.9C125.091 92.2301 124.825 91.2368 124.753 90.5207C124.719 90.1793 124.848 89.8328 125.101 89.5993C125.35 89.3683 125.686 89.2707 126.016 89.3298C127.884 89.666 128.435 91.3805 128.491 92.5458C128.655 92.5355 128.825 92.5176 129.001 92.4919C129.24 92.456 129.468 92.3918 129.678 92.302C128.776 91.2419 128.648 89.897 129.319 88.5084C129.519 88.0952 129.929 87.8257 130.39 87.8103C130.846 87.7949 131.262 88.0285 131.487 88.4186C132.538 90.2538 131.994 91.5448 131.356 92.3071C131.351 92.3122 131.349 92.3174 131.344 92.3225C131.679 92.4893 132.048 92.592 132.435 92.6202C132.866 90.4052 134.152 89.7353 134.928 89.5351C135.292 89.4427 135.674 89.5377 135.951 89.7918C136.225 90.0433 136.353 90.4103 136.294 90.7748C136.043 92.3353 134.998 93.3389 133.35 93.6033V103.403H133.345ZM135.203 90.5284C135.195 90.5284 135.187 90.5284 135.18 90.531C134.349 90.744 133.778 91.4293 133.501 92.5253C134.529 92.2737 135.113 91.6449 135.28 90.6105C135.282 90.6003 135.285 90.5746 135.256 90.5489C135.244 90.5412 135.226 90.5284 135.203 90.5284ZM125.826 90.341C125.819 90.341 125.809 90.3436 125.798 90.3539C125.791 90.3616 125.77 90.3821 125.775 90.418C125.826 90.9339 126.008 91.6423 126.582 92.0915C126.821 92.2789 127.113 92.4098 127.456 92.4816C127.402 91.7989 127.123 90.572 125.837 90.341C125.834 90.341 125.829 90.341 125.826 90.341ZM130.431 88.837C130.429 88.837 130.426 88.837 130.424 88.837C130.385 88.8395 130.29 88.8524 130.239 88.955C129.734 89.9997 129.819 90.9134 130.49 91.6731C130.5 91.6834 130.508 91.6937 130.518 91.7039C130.536 91.686 130.552 91.6654 130.57 91.6449C131.203 90.8929 131.21 90.0048 130.595 88.9294C130.549 88.8549 130.483 88.837 130.431 88.837Z" fill="white"/>
<path d="M126.129 105.375H134.572C135.274 105.375 135.846 104.805 135.846 104.099C135.846 103.396 135.277 102.823 134.572 102.823H126.129C125.427 102.823 124.855 103.393 124.855 104.099C124.858 104.802 125.427 105.375 126.129 105.375Z" fill="#AACEEE"/>
<path d="M134.575 105.888H126.131C125.147 105.888 124.345 105.087 124.345 104.099C124.345 103.11 125.145 102.31 126.131 102.31H134.575C135.559 102.31 136.361 103.11 136.361 104.099C136.361 105.087 135.559 105.888 134.575 105.888ZM126.129 103.339C125.708 103.339 125.368 103.68 125.368 104.101C125.368 104.522 125.708 104.863 126.129 104.863H134.572C134.992 104.863 135.333 104.522 135.333 104.101C135.333 103.68 134.992 103.339 134.572 103.339H126.129Z" fill="white"/>
<path d="M114.047 84.6484H108.788V85.6751H114.047V84.6484Z" fill="white"/>
<path d="M131.005 63.9531H129.98V69.2199H131.005V63.9531Z" fill="white"/>
<path d="M114.936 70.3544L114.235 71.1035L118.072 74.705L118.773 73.9558L114.936 70.3544Z" fill="white"/>
<path d="M145.224 70.3478L141.387 73.9492L142.088 74.6984L145.925 71.0969L145.224 70.3478Z" fill="white"/>
<path d="M151.498 84.6484H146.239V85.6751H151.498V84.6484Z" fill="white"/>
<path d="M239.476 259.021H195.065V266.464H239.476V259.021Z" fill="#F98F4A"/>
<path d="M200.07 259.166H199.301V266.463H200.07V259.166Z" fill="#1F1F1F"/>
<path d="M202.404 259.166H201.635V266.463H202.404V259.166Z" fill="#1F1F1F"/>
<path d="M232.488 259.166H231.719V266.463H232.488V259.166Z" fill="#1F1F1F"/>
<path d="M234.822 259.166H234.054V266.463H234.822V259.166Z" fill="#1F1F1F"/>
<path d="M208.126 250.776H193.986V258.612H208.126V250.776Z" fill="white"/>
<path d="M202.847 230.068L203.962 248.71C204.018 249.644 204.795 250.37 205.728 250.365L215.258 250.304C216.193 250.298 216.959 249.559 217.003 248.622L217.856 230.065H202.847V230.068Z" fill="white"/>
<path d="M237.938 249.898V259.174H192.71V257.814H206.602V251.338H192.71V249.898H237.938Z" fill="#54578C"/>
<path d="M203.134 234.786H217.566C217.853 234.786 218.079 235.025 218.066 235.312L217.574 245.743C217.561 246.01 217.341 246.221 217.074 246.221H203.626C203.36 246.221 203.14 246.01 203.127 245.743L202.635 235.312C202.622 235.025 202.85 234.786 203.134 234.786Z" fill="#54578C"/>
<path d="M218.474 227.789H202.225V231.067H218.474V227.789Z" fill="#54578C"/>
<path d="M204.165 228.387L204.562 225.91H216.298L216.698 228.387H204.165Z" fill="#54578C"/>
<path d="M210.35 243.694C208.703 243.694 207.363 242.352 207.363 240.702C207.363 239.051 208.703 237.709 210.35 237.709C211.998 237.709 213.338 239.051 213.338 240.702C213.338 242.352 211.998 243.694 210.35 243.694ZM210.35 238.736C209.269 238.736 208.388 239.619 208.388 240.702C208.388 241.785 209.266 242.668 210.35 242.668C211.434 242.668 212.313 241.785 212.313 240.702C212.313 239.619 211.432 238.736 210.35 238.736Z" fill="white"/>
<path d="M206.599 252.321H193.986V253.091H206.599V252.321Z" fill="#1F1F1F"/>
<path d="M206.599 254.118H193.986V254.888H206.599V254.118Z" fill="#1F1F1F"/>
<path d="M206.599 255.914H193.986V256.684H206.599V255.914Z" fill="#1F1F1F"/>
<path d="M216.698 227.275H210.351V228.302H216.698V227.275Z" fill="white"/>
<path d="M208.213 249.898V259.174H192.71V257.814H206.602V251.338H192.71V249.898H208.213Z" fill="#3E4268"/>
<path d="M170.375 218.672C175.923 210.282 184.326 206.07 189.143 209.263C193.674 212.268 193.417 220.756 188.754 228.739L183.039 227.561L186.16 232.524C180.702 239.367 173.412 242.54 169.053 239.65C164.236 236.457 164.828 227.063 170.375 218.672Z" fill="#227756"/>
<path d="M162.273 189.043C164.738 189.043 166.929 190.303 168.336 192.259L164.835 197.518L169.74 195.39C169.886 196.032 169.963 196.702 169.963 197.39C169.963 201.999 166.519 205.734 162.273 205.734C158.024 205.734 154.583 201.997 154.583 197.39C154.583 192.783 158.024 189.043 162.273 189.043Z" fill="#227756"/>
<path d="M142.275 226.275C142.275 226.275 140.102 226.275 138.065 226.275C137.086 223.156 137.942 219.75 140.492 217.764C143.843 215.151 148.853 215.982 151.677 219.619C154.501 223.256 154.075 228.323 150.724 230.936C147.372 233.549 142.362 232.717 139.538 229.08C139.487 229.013 139.438 228.944 139.39 228.877L142.275 226.275Z" fill="#227756"/>
<path d="M163.165 258.068L162.152 257.911C165.215 238.176 171.787 225.951 176.764 219.168C182.183 211.781 186.824 209.119 187.021 209.009L187.524 209.905C187.478 209.93 182.839 212.602 177.545 219.838C172.651 226.524 166.186 238.582 163.165 258.068Z" fill="#1F1F1F"/>
<path d="M163.17 189.685H162.145V259.785H163.17V189.685Z" fill="#1F1F1F"/>
<path d="M163.17 262.611H162.145C162.145 246.785 141.939 219.284 141.737 219.006L142.559 218.396C143.402 219.533 163.17 246.449 163.17 262.611Z" fill="#1F1F1F"/>
<path d="M176.848 211.985L175.825 212.055L176.353 219.916L177.376 219.847L176.848 211.985Z" fill="#1F1F1F"/>
<path d="M184.249 258.502L182.829 265.753L182.196 268.982H143.625L142.536 263.417L141.575 258.502H184.249Z" fill="white"/>
<path d="M182.829 265.753L182.196 268.982H143.625L142.536 263.417L182.829 265.753Z" fill="#1F1F1F"/>
<path d="M300.656 176.65L300.658 176.566C300.658 176.566 297.186 177.454 295.782 177.638C289.824 178.424 291.5 168.416 291.5 168.416C290.603 168.193 289.65 167.734 288.943 167.349C288.435 167.069 288.392 166.358 288.863 166.017C290.308 164.967 291.715 163.699 291.715 163.699C291.072 155.978 294.498 154.048 294.498 154.048L312.912 151.689L316.287 168.845C316.287 173.134 319.657 191.031 319.657 191.031L300.456 193.57L300.582 180.754L300.584 180.654L300.656 176.65Z" fill="#F9C19E"/>
<path d="M292.73 171.027C292.274 171.027 291.787 170.97 291.287 170.824L291.5 170.085C293.588 170.685 295.449 169.5 295.467 169.489L295.884 170.136C295.813 170.18 294.485 171.027 292.73 171.027Z" fill="#1F1F1F"/>
<path d="M292.784 162.842C292.784 162.842 293.032 163.709 293.906 164.128C294.18 164.259 294.516 164.343 294.926 164.343C295.572 164.343 296.638 164.128 297.068 162.842C297.068 162.842 295.769 161.279 294.183 161.807C293.729 161.956 293.258 162.272 292.784 162.842Z" fill="white"/>
<path d="M292.784 162.842C292.784 162.842 293.032 163.71 293.906 164.128C294.59 164.107 295.139 163.589 295.139 162.95C295.139 162.398 294.731 161.939 294.18 161.808C293.729 161.956 293.258 162.272 292.784 162.842Z" fill="#1F1F1F"/>
<path d="M297.934 160.385C297.02 160.064 295.09 159.543 293.734 160.254C293.573 160.339 293.383 160.331 293.222 160.249C293.217 160.247 293.214 160.244 293.209 160.241C292.784 160.021 292.804 159.407 293.242 159.21C294.226 158.763 296.32 158.18 298.093 160.139C298.196 160.257 298.08 160.437 297.934 160.385Z" fill="#1F1F1F"/>
<path d="M337.212 160.375C341.174 156.623 338.909 150.391 337.212 147.722C331.506 138.741 323.272 146.241 320.328 149.446C324.956 141.639 337.194 141.354 337.325 141.351L337.315 140.581C337.171 140.584 323.352 140.902 319.062 150.209C315.634 140.163 305.214 144.498 302.962 145.573C302.18 141.952 298.847 140.658 298.703 140.604L298.434 141.325C298.462 141.336 301.027 142.332 301.991 144.973C300.95 143.682 299.318 142.788 299.318 142.788C292.932 139.811 289.824 145.394 289.683 148.15C289.609 149.6 289.793 150.768 290.165 151.71C288.848 149.916 288.568 147.711 288.566 147.678L287.802 147.768C287.828 147.994 288.486 153.266 292.807 154.51C296.797 156.392 303.172 154.159 303.172 154.159C299.746 164.882 307.454 166.812 307.454 166.812C307.026 164.667 307.656 163.332 308.525 162.737C310.56 161.343 311.859 162.911 312.164 163.809C313.158 166.715 311.339 168.109 310.665 169.384C309.937 170.765 311.71 171.376 312.377 171.53C313.758 171.846 314.955 171.925 316 171.825C317.071 171.917 318.076 171.974 318.998 171.974C321.425 171.974 323.313 171.589 324.556 170.457C325.753 169.369 326.386 168.047 326.437 166.533C326.491 164.89 325.853 163.276 325.115 161.977C327.826 163.663 330.845 163.907 332.344 163.907C332.887 163.907 333.233 163.876 333.292 163.868L333.215 163.101C333.164 163.106 328.992 163.483 325.468 161.281C330.88 162.839 335.406 162.087 337.212 160.375ZM322.896 161.351C323.69 162.631 324.554 164.543 324.026 166.23C323.646 167.439 322.588 168.381 320.879 169.043C322.652 166.54 322.893 163.034 322.896 161.351ZM325.666 166.504C325.622 167.803 325.076 168.94 324.039 169.882C322.988 170.839 321.268 171.248 318.378 171.183C318.947 170.911 319.444 170.57 319.88 170.175C322.573 169.443 324.215 168.196 324.759 166.458C325.33 164.628 324.559 162.665 323.749 161.266C324.664 162.585 325.73 164.554 325.666 166.504Z" fill="#1F1F1F"/>
<path d="M300.658 176.571C302.129 176.094 304.804 174.869 306.239 173.021C306.211 173.175 305.735 177.603 300.579 180.757L300.658 176.571Z" fill="#1F1F1F"/>
<path d="M308.664 170.691C309.217 170.691 309.665 170.241 309.665 169.687C309.665 169.133 309.217 168.684 308.664 168.684C308.11 168.684 307.662 169.133 307.662 169.687C307.662 170.241 308.11 170.691 308.664 170.691Z" fill="#0A0A09"/>
<path d="M308.794 170.475C309.348 170.475 309.796 170.026 309.796 169.471C309.796 168.917 309.348 168.468 308.794 168.468C308.241 168.468 307.792 168.917 307.792 169.471C307.792 170.026 308.241 170.475 308.794 170.475Z" fill="#54578C"/>
<path d="M323.887 161.017L322.873 160.871C323.849 154.09 319.044 150.55 318.839 150.402L319.434 149.567C319.659 149.729 324.953 153.602 323.887 161.017Z" fill="#F98F4A"/>
<path d="M361.874 271.083H295.651C296.62 266.207 297.283 262.816 297.75 256.479C297.75 256.469 297.752 256.461 297.752 256.451C298.211 250.193 298.342 245.117 298.342 245.117L340.52 234.955C342.376 236.69 344.521 239.778 346.719 243.497C346.783 243.602 346.845 243.71 346.906 243.818C354.135 256.076 361.874 271.083 361.874 271.083Z" fill="#181B3F"/>
<path d="M364.523 244.495L359.286 255.244L358.84 256.16L357.81 258.273L353.579 266.953C347.972 265.349 345.015 258.388 345.015 258.388L350.074 244.818L350.842 242.757L352.49 238.335L364.523 244.495Z" fill="#F9C19E"/>
<path d="M364.523 244.495L359.286 255.244L358.84 256.16C355.396 252.66 351.667 246.251 350.842 242.757L352.49 238.335L364.523 244.495Z" fill="#1F1F1F"/>
<path d="M346.906 243.818C329.292 261.399 308.489 259.446 297.752 256.451C298.211 250.193 298.342 245.117 298.342 245.117L340.521 234.955C342.376 236.69 344.521 239.778 346.719 243.497C346.783 243.602 346.845 243.71 346.906 243.818Z" fill="#1F1F1F"/>
<path d="M250.623 198.028L244.106 207.815L239.135 200.846L238.364 199.763L237.851 199.044C227.963 200.705 221.738 201.952 221.738 201.952L210.151 199.332C209.577 199.204 209.297 198.919 209.177 198.605C209.016 198.182 209.144 197.707 209.218 197.504C209.241 197.44 209.259 197.402 209.259 197.402C209.359 196.403 209.902 195.908 210.361 195.664C210.73 195.466 211.045 195.433 211.045 195.433C211.181 194.976 211.399 194.637 211.647 194.383C212.375 193.644 213.367 193.644 213.367 193.644L220.695 194.717L220.803 194.668H220.808L226.592 192.035C220.875 189.707 222.125 186.129 222.125 186.129L228.826 188.187L235.617 188.367C240.083 187.831 242.587 189.62 242.587 189.62L247.901 195.179L250.623 198.028Z" fill="#F9C19E"/>
<path d="M227.061 198.97C227.03 198.968 223.791 198.703 219.824 198.221L219.77 198.21L210.96 195.823L211.16 195.079L219.942 197.458C223.881 197.938 227.089 198.2 227.12 198.203L227.061 198.97Z" fill="#1F1F1F"/>
<path d="M222.858 200.718L220.775 200.705L209.074 197.864L209.256 197.117L220.913 199.948H222.858V200.718Z" fill="#1F1F1F"/>
<path d="M209.692 199.339C209.346 199.293 209.062 199.124 208.875 198.849C208.442 198.217 208.634 197.237 208.703 196.952C209.026 195.615 210.051 195.24 210.758 195.215C211.319 193.523 212.713 193.192 213.405 193.259L220.639 194.319L230.722 189.889L231.033 190.595L220.747 195.114L213.31 194.024C213.269 194.021 211.86 193.921 211.417 195.705L211.332 196.041L210.991 195.992C210.868 195.977 209.756 195.874 209.454 197.134C209.351 197.56 209.326 198.143 209.513 198.415C209.577 198.51 209.666 198.561 209.797 198.577L209.692 199.339Z" fill="#1F1F1F"/>
<path d="M220.532 194.272L220.498 195.041L225.154 195.253L225.189 194.483L220.532 194.272Z" fill="#1F1F1F"/>
<path d="M250.623 198.028L244.106 207.815L239.135 200.846L238.364 199.763C241.815 197.43 246.013 195.656 247.896 195.174L250.623 198.028Z" fill="#1F1F1F"/>
<path d="M234.351 208.97C234.351 208.97 241.782 198.447 250.116 195.151L267.466 214.404C267.466 214.404 282.672 192.456 288.276 187.91C293.883 183.365 300.546 180.156 300.546 180.156C300.546 180.156 299.651 186.275 307.126 186.127C310.719 186.055 314.045 183.047 318.145 177.143C318.145 177.143 330.496 174.204 337.704 177.518C338.409 177.841 339.042 178.306 339.593 178.853C343.593 182.816 363.235 202.299 371.165 210.751C375.032 214.873 372.47 222.317 370.42 231.3C368.903 237.95 364.27 256.197 364.27 256.197C364.27 256.197 356.07 250.807 350.432 240.283L355.404 219.596L335.939 203.842L346.84 241.287C346.84 241.287 320.989 262.934 294.829 248.497C294.829 248.497 297.765 240.476 292.425 226.036C292.425 226.036 289.988 221.205 289.186 216.927C289.186 216.927 278.008 237.799 266.262 237.532C262.526 237.447 259.822 234.868 253.416 228.184L234.351 208.97Z" fill="#F98F4A"/>
<path d="M289.465 220.065C285.586 209.35 289.821 200.153 290.003 199.766L290.931 200.205C290.887 200.294 286.698 209.414 290.429 219.716L289.465 220.065Z" fill="#1F1F1F"/>
<path d="M356.257 268.511C346.563 267.2 342.427 254.33 342.255 253.784L343.234 253.476C343.275 253.604 347.35 266.27 356.395 267.495L356.257 268.511Z" fill="#1F1F1F"/>
<path d="M115.128 274.518H79.3888H49.0539C48.1493 265.935 48.9386 257.716 50.0379 251.405C51.2833 244.229 52.9258 239.514 52.9258 239.514L110.836 239.632L112.773 255.386L115.128 274.518Z" fill="#181B3F"/>
<path d="M81.3208 166.014L100.709 169.956L101.124 160.573L101.137 160.311L101.203 158.604L101.357 154.628V154.613C108.371 155.552 109.483 153.53 109.89 149.184C110.175 146.181 110.018 143.24 110.018 143.24L111.979 142.827C112.945 142.624 113.337 141.456 112.691 140.709L108.501 135.869C108.468 135.335 108.394 134.76 108.294 134.169C108.214 133.713 108.119 133.248 108.014 132.783C107.863 132.126 107.691 131.472 107.517 130.856C107.371 130.332 107.223 129.837 107.079 129.388C106.672 128.092 106.336 127.196 106.336 127.196L82.5226 125.895L84.57 147.539L84.5444 147.68L81.3208 166.014Z" fill="#E99798"/>
<path d="M102.331 137.712C102.331 137.712 102.979 139.229 104.929 139.229C105.219 139.229 105.57 139.152 105.911 138.985C106.385 138.751 106.843 138.341 107.094 137.709C107.094 137.709 106.477 136.785 105.339 136.59C104.568 136.459 103.553 136.659 102.331 137.712Z" fill="white"/>
<path d="M104.822 137.658C104.822 138.315 105.288 138.864 105.911 138.987C106.385 138.754 106.843 138.343 107.094 137.712C107.094 137.712 106.477 136.788 105.339 136.593C105.024 136.839 104.822 137.227 104.822 137.658Z" fill="#1F1F1F"/>
<path d="M108.962 147.826C106.582 148.26 105.754 145.419 105.754 145.419L109.298 145.57L108.962 147.826Z" fill="white"/>
<path d="M108.214 133.051C108.399 133.341 108.57 133.777 108.301 134.157C108.16 134.352 107.927 134.46 107.686 134.47C107.089 134.498 105.683 134.575 105.147 134.675C104.373 134.819 102.333 135.325 102.333 135.325C102.333 135.325 101.685 135.325 101.685 134.675C101.685 134.041 103.33 132.173 107.622 132.679C107.861 132.709 108.084 132.845 108.214 133.051Z" fill="#1F1F1F"/>
<path d="M109.731 116.421C107.11 115.523 104.919 115.8 98.6509 119.062C96.5292 120.168 95.0148 120.42 89.1261 119.93C88.6188 119.886 87.9909 119.853 87.3042 119.866C84.529 119.66 78.6865 119.74 77.6718 123.88C77.3873 125.04 77.5872 126.914 78.8454 128.397C76.8518 127.902 75.1221 128.502 75.0221 128.538L75.2809 129.262C75.304 129.254 77.231 128.585 79.2528 129.334C75.3527 129.485 73.2258 132.881 73.2002 132.922L73.8562 133.323C73.8793 133.282 76.1266 129.696 80.2214 130.137C78.6071 130.797 74.9683 132.981 78.953 138.361L84.4624 147.686C84.4624 147.686 85.7001 147.624 87.276 147.052C88.5214 146.6 90.0358 145.517 90.0358 145.517C90.0358 145.517 88.5624 144.634 87.8423 143.222C86.8609 141.3 86.7943 138.41 89.7796 137.889C91.3401 137.617 93.3901 138.9 93.8924 141.182L96.8444 140.314L96.4113 137.712C96.4113 137.712 98.7919 135.109 98.1436 131.857C97.8745 130.507 97.6798 129.755 97.5439 129.337C98.7073 130.027 101.459 131.285 106.057 131.285C107.589 131.285 109.326 131.144 111.279 130.797L111.143 130.04C104.642 131.197 100.583 129.95 98.6766 129.052C102.154 129.56 111.048 130.433 112.945 126.436C114.049 124.098 114.656 118.11 109.731 116.421ZM80.6314 128.916C78.2355 127.478 78.2073 124.927 78.4174 124.065C78.9171 122.019 80.9313 121.134 83.0402 120.787C80.9364 121.878 79.4886 124.19 80.6314 128.916Z" fill="#1F1F1F"/>
<path d="M93.9026 151.995C93.941 152.167 95.5708 156.12 101.203 158.604L101.357 154.629C99.3223 154.31 96.2806 153.481 93.9026 151.995Z" fill="#1F1F1F"/>
<path d="M92.1423 141.403C92.1397 141.395 91.7938 140.574 91.0122 140.299C90.4562 140.101 89.7874 140.214 89.0186 140.635L88.5266 139.734C89.567 139.167 90.5228 139.034 91.3659 139.336C92.583 139.775 93.0725 140.969 93.0904 141.02L92.1423 141.403Z" fill="#1F1F1F"/>
<path d="M112.773 255.386C103.732 257.324 81.1158 260.311 50.0378 251.405C51.2832 244.229 52.9258 239.514 52.9258 239.514L110.836 239.632L112.773 255.386Z" fill="#1F1F1F"/>
<path d="M205.907 127.065C205.907 127.065 202.714 129.198 198.104 130.974C198.104 130.974 187.457 135.764 181.43 136.121L181.076 136.393L176.82 139.673L170.801 130.977L175.385 127.915L176.121 127.425C176.121 127.425 176.477 123.872 180.377 119.255L185.697 111.439C185.697 111.439 187.47 113.572 184.987 117.476L183.567 122.094C183.567 122.094 188.887 121.383 192.08 119.963L197.753 117.476C197.753 117.476 202.363 114.992 204.136 116.765L198.817 119.963L192.077 123.872L198.46 122.807L203.07 121.031C203.07 121.031 205.551 119.255 207.324 121.031L204.495 123.156L204.539 123.138C204.877 122.989 206.714 122.296 207.678 124.229L204.487 125.998C204.487 125.998 205.907 125.998 205.907 127.065Z" fill="#E99798"/>
<path d="M181.425 129.367L181.099 128.669C181.276 128.584 185.407 126.575 183.431 122.222L184.131 121.903C186.424 126.955 181.473 129.344 181.425 129.367Z" fill="#1F1F1F"/>
<path d="M192.333 126.909L192.175 126.154L198.888 124.74L204.764 122.646L205.023 123.372L199.073 125.487L192.333 126.909Z" fill="#1F1F1F"/>
<path d="M193.402 129.393L193.236 128.644L199.598 127.227L204.06 125.682L204.311 126.411L199.785 127.974L193.402 129.393Z" fill="#1F1F1F"/>
<path d="M181.076 136.39L176.82 139.67L170.801 130.972L175.383 127.912L181.076 136.39Z" fill="#1F1F1F"/>
<path d="M182.076 145.573L139.282 177.913L115.451 188.693L112.376 216.413L113.913 250.293C113.401 250.807 103.404 254.775 84.4624 254.143C61.382 253.373 47.8008 249.01 47.8008 249.01L49.2153 243.13L50.0378 239.703L51.132 235.15C50.8553 235.181 50.5811 235.209 50.312 235.235C25.8965 237.581 31.9824 219.83 38.3195 203.837C41.4509 195.934 47.114 182.785 51.1346 173.553C54.0174 166.931 59.8496 162.064 66.8709 160.416L82.0229 156.921C98.3153 171.458 101.613 158.407 101.613 158.407L130.057 155.07L173.876 127.863L182.076 145.573Z" fill="#54578C"/>
<path d="M112.113 175.574L110.581 202.01L111.604 202.07L113.137 175.634L112.113 175.574Z" fill="#1F1F1F"/>
<path d="M68.7637 190.984L60.564 208.437L61.4914 208.874L69.6911 191.421L68.7637 190.984Z" fill="#1F1F1F"/>
<path d="M86.5236 255.472L81.5212 266.932L82.4603 267.343L87.4627 255.884L86.5236 255.472Z" fill="#1F1F1F"/>
<path d="M108.609 184.844L103.246 211.507C102.959 212.934 104.048 214.266 105.501 214.266H146.206C147.3 214.266 148.243 213.493 148.461 212.418L153.824 185.747C154.111 184.32 153.022 182.988 151.569 182.988L110.864 182.996C109.77 182.996 108.827 183.769 108.609 184.844Z" fill="#1F1F1F"/>
<path d="M110.936 184.844L105.572 211.507C105.285 212.934 106.374 214.266 107.827 214.266H148.533C149.627 214.266 150.57 213.493 150.788 212.418L156.151 185.747C156.438 184.32 155.349 182.988 153.896 182.988L113.191 182.996C112.094 182.996 111.151 183.769 110.936 184.844Z" fill="white"/>
<path d="M133.252 199.302C133.762 197.668 133.115 196.01 131.806 195.6C130.497 195.19 129.022 196.183 128.512 197.817C128.002 199.452 128.649 201.109 129.958 201.519C131.267 201.929 132.741 200.936 133.252 199.302Z" fill="#1F1F1F"/>
<path d="M112.652 199.736L107.1 201.117L111.745 201.276L117.155 202.926C117.155 202.926 116.647 205.172 111.863 204.171L108.932 205.079L112.276 205.313L115.013 206.553C115.013 206.553 114.818 208.447 111.059 207.325L105.214 208.193C105.214 208.193 102.592 210.942 98.7945 211.281L98.3614 211.558L98.1872 211.668L95.9757 213.077L93.157 203.324L93.9667 202.675L94.5792 202.184L95.7195 201.271C95.7195 201.271 97.5747 199.04 99.0764 197.267C99.5632 196.692 100.104 196.163 100.688 195.685L103.384 193.494C103.738 193.206 104.142 192.983 104.573 192.839L110.046 191.024L116.104 191.671C116.104 191.671 115.707 194.854 110.815 194.474L106.092 196.941L112.665 196.384L119.161 198.491C119.161 198.491 118.526 201.784 112.652 199.736Z" fill="#E99798"/>
<path d="M98.5307 221.036L49.2153 243.13L50.0379 239.703L51.1321 235.15C50.8579 235.181 97.7978 221.254 98.5307 221.036Z" fill="#1F1F1F"/>
<path d="M51.1627 235.807L50.8911 234.817C79.8704 226.865 94.9149 221.588 97.6029 220.623L93.1211 203.924L55.3217 209.828L55.1628 208.814L93.8719 202.767L98.8355 221.265L98.3973 221.426C98.2512 221.483 83.2042 227.014 51.1627 235.807Z" fill="#1F1F1F"/>
<path d="M98.1872 211.667L95.9757 213.077L93.157 203.323L93.9667 202.674L98.1872 211.667Z" fill="#1F1F1F"/>
<path d="M366.919 274.934H41.4971V285.97H366.919V274.934Z" fill="#1F1F1F"/>
<path d="M379.435 266.207H28.9819V275.96H379.435V266.207Z" fill="#07498B"/>
<path d="M384.48 285.329H23.9363V286.612H384.48V285.329Z" fill="#1F1F1F"/>
</svg>
