<svg width="232" height="153" viewBox="0 0 232 153" fill="none" xmlns="http://www.w3.org/2000/svg">
<ellipse cx="116" cy="139.76" rx="115.486" ry="13.2404" fill="#CDDFF2" fill-opacity="0.39"/>
<rect x="54.5662" y="40.0762" width="125.048" height="20.5962" fill="#CDDFF2"/>
<rect x="54.947" y="63.2578" width="125.048" height="73.5577" fill="white"/>
<rect x="63.3931" y="47.4336" width="5.88462" height="5.88462" fill="#3E97FF"/>
<rect x="73.6912" y="47.4336" width="5.88462" height="5.88462" fill="#3E97FF"/>
<rect x="83.989" y="47.4336" width="5.88462" height="5.88462" fill="#3E97FF"/>
<circle cx="97.2296" cy="88.6264" r="4.41346" fill="#3279CC"/>
<circle cx="136.951" cy="88.6264" r="4.41346" fill="#3279CC"/>
<path d="M107.528 104.809C110.547 107.029 118.6 110.137 126.653 104.809" stroke="#3279CC" stroke-width="2.94231" stroke-linecap="round"/>
<path d="M48.6089 16.2812C42.9879 17.3842 31.1637 23.2331 28.8352 37.8054" stroke="#CDDFF2" stroke-width="4.41346" stroke-linecap="round"/>
<path d="M53.686 27.3828C49.96 28.1139 42.1219 31.9911 40.5784 41.6508" stroke="#CDDFF2" stroke-width="4.41346" stroke-linecap="round"/>
<rect x="52.7271" y="38.2386" width="127.255" height="99.3029" rx="10.6659" stroke="#3E97FF" stroke-width="5.14904"/>
<rect x="54.5662" y="59.2012" width="123.577" height="4.41346" fill="#3E97FF"/>
<path d="M173.638 39.5995C173.701 38.9449 173.469 38.2966 173.004 37.831C169.536 34.3528 167.49 29.8672 167.49 25.0084C167.49 14.4089 177.414 5.33173 190.293 5.33173C203.173 5.33173 213.096 14.4089 213.096 25.0084C213.096 35.608 203.173 44.6851 190.293 44.6851C187.933 44.6851 185.661 44.3756 183.527 43.8034C183.002 43.6626 182.443 43.7206 181.958 43.9664C180.538 44.6861 177.315 46.0835 171.955 47.1707C172.752 44.8138 173.396 42.1321 173.638 39.5995Z" fill="white" stroke="#3279CC" stroke-width="4.41346" stroke-linecap="round" stroke-linejoin="round"/>
<path fill-rule="evenodd" clip-rule="evenodd" d="M191.151 20.5C191.151 20.2239 190.927 20 190.651 20H184.014C183.186 20 182.514 20.6716 182.514 21.5V31.5C182.514 32.3284 183.186 33 184.014 33H194.014C194.843 33 195.514 32.3284 195.514 31.5V24.8636C195.514 24.5875 195.291 24.3636 195.014 24.3636C194.738 24.3636 194.514 24.5875 194.514 24.8636V31.5C194.514 31.7761 194.291 32 194.014 32H184.014C183.738 32 183.514 31.7761 183.514 31.5V21.5C183.514 21.2239 183.738 21 184.014 21H190.651C190.927 21 191.151 20.7761 191.151 20.5Z" fill="#93B8DE"/>
<path fill-rule="evenodd" clip-rule="evenodd" d="M198.514 17.5C198.514 17.2239 198.291 17 198.014 17H193.014C192.738 17 192.514 17.2239 192.514 17.5C192.514 17.7761 192.738 18 193.014 18H196.807L188.661 26.1464C188.466 26.3417 188.466 26.6583 188.661 26.8536C188.856 27.0488 189.173 27.0488 189.368 26.8536L197.514 18.7071V22.5C197.514 22.7761 197.738 23 198.014 23C198.291 23 198.514 22.7761 198.514 22.5V17.5Z" fill="#93B8DE"/>
</svg>
