<svg width="60" height="60" viewBox="0 0 60 60" fill="none" xmlns="http://www.w3.org/2000/svg">
<path d="M10.5617 12.6562C10.149 12.6572 9.75356 12.822 9.46222 13.1143C9.17087 13.4066 9.00744 13.8026 9.00781 14.2153V55.0781C9.00856 55.49 9.17251 55.8848 9.46376 56.1761C9.75502 56.4673 10.1498 56.6313 10.5617 56.632H40.6742C41.0871 56.6322 41.4832 56.4687 41.7758 56.1775C42.0684 55.8863 42.2338 55.491 42.2356 55.0781V51.9909L13.3888 12.6562H10.5617Z" fill="white"/>
<path d="M14.9426 8.01562C14.5311 8.01637 14.1366 8.18 13.8454 8.47074C13.5543 8.76149 13.39 9.1557 13.3887 9.56719V50.4295C13.3883 50.8422 13.5517 51.2382 13.8431 51.5306C14.1344 51.8229 14.5299 51.9876 14.9426 51.9886H45.0546C45.4679 51.9879 45.864 51.8234 46.1562 51.5311C46.4484 51.2389 46.6129 50.8428 46.6137 50.4295V47.3438L17.7691 8.01562H14.9426Z" fill="#B2D5FF"/>
<path d="M19.3234 3.37207C18.9115 3.37281 18.5167 3.53677 18.2255 3.82802C17.9342 4.11927 17.7703 4.51408 17.7695 4.92598V45.7879C17.7698 46.2001 17.9335 46.5954 18.2248 46.887C18.5161 47.1787 18.9112 47.3429 19.3234 47.3436H49.4411C49.853 47.3429 50.2478 47.1789 50.5391 46.8877C50.8303 46.5964 50.9943 46.2016 50.995 45.7897V13.4877L40.8738 3.37207H19.3234Z" fill="white"/>
<path d="M40.875 11.9309C40.875 12.3443 41.0392 12.7407 41.3315 13.033C41.6238 13.3253 42.0202 13.4895 42.4336 13.4895H50.9944L40.875 3.37012V11.9309Z" fill="#B2D5FF"/>
<path d="M44.13 17.0879H24.6328C24.4153 17.0879 24.2066 17.1743 24.0528 17.3282C23.8989 17.482 23.8125 17.6906 23.8125 17.9082C23.8125 18.1258 23.8989 18.3344 24.0528 18.4883C24.2066 18.6421 24.4153 18.7285 24.6328 18.7285H44.13C44.3476 18.7285 44.5562 18.6421 44.7101 18.4883C44.8639 18.3344 44.9503 18.1258 44.9503 17.9082C44.9503 17.6906 44.8639 17.482 44.7101 17.3282C44.5562 17.1743 44.3476 17.0879 44.13 17.0879ZM44.13 22.0168H24.6328C24.4153 22.0168 24.2066 22.1032 24.0528 22.2571C23.8989 22.4109 23.8125 22.6195 23.8125 22.8371C23.8125 23.0547 23.8989 23.2633 24.0528 23.4172C24.2066 23.571 24.4153 23.6574 24.6328 23.6574H44.13C44.3476 23.6574 44.5562 23.571 44.7101 23.4172C44.8639 23.2633 44.9503 23.0547 44.9503 22.8371C44.9503 22.6195 44.8639 22.4109 44.7101 22.2571C44.5562 22.1032 44.3476 22.0168 44.13 22.0168ZM44.13 26.9462H24.6328C24.4153 26.9462 24.2066 27.0326 24.0528 27.1864C23.8989 27.3403 23.8125 27.5489 23.8125 27.7665C23.8125 27.984 23.8989 28.1927 24.0528 28.3465C24.2066 28.5004 24.4153 28.5868 24.6328 28.5868H44.13C44.3476 28.5868 44.5562 28.5004 44.7101 28.3465C44.8639 28.1927 44.9503 27.984 44.9503 27.7665C44.9503 27.5489 44.8639 27.3403 44.7101 27.1864C44.5562 27.0326 44.3476 26.9462 44.13 26.9462ZM44.13 31.8746H24.6328C24.4153 31.8746 24.2066 31.961 24.0528 32.1149C23.8989 32.2687 23.8125 32.4774 23.8125 32.6949C23.8125 32.9125 23.8989 33.1211 24.0528 33.275C24.2066 33.4288 24.4153 33.5152 24.6328 33.5152H44.13C44.3476 33.5152 44.5562 33.4288 44.7101 33.275C44.8639 33.1211 44.9503 32.9125 44.9503 32.6949C44.9503 32.4774 44.8639 32.2687 44.7101 32.1149C44.5562 31.961 44.3476 31.8746 44.13 31.8746ZM44.13 36.804H24.6328C24.4153 36.804 24.2066 36.8904 24.0528 37.0442C23.8989 37.1981 23.8125 37.4067 23.8125 37.6243C23.8125 37.8419 23.8989 38.0505 24.0528 38.2043C24.2066 38.3582 24.4153 38.4446 24.6328 38.4446H44.13C44.3476 38.4446 44.5562 38.3582 44.7101 38.2043C44.8639 38.0505 44.9503 37.8419 44.9503 37.6243C44.9503 37.4067 44.8639 37.1981 44.7101 37.0442C44.5562 36.8904 44.3476 36.804 44.13 36.804Z" fill="#8BC0FF"/>
</svg>
