<svg width="60" height="60" viewBox="0 0 60 60" fill="none" xmlns="http://www.w3.org/2000/svg">
<path d="M9.3895 3.75586C7.90075 3.76141 6.47425 4.35383 5.41955 5.40455C4.36485 6.45527 3.76704 7.87952 3.75586 9.36824V20.1536C3.76515 21.6449 4.36168 23.0725 5.41618 24.127C6.47069 25.1815 7.89823 25.778 9.3895 25.7873H22.0599C25.1424 25.7873 27.6793 23.2362 27.6793 20.1536V9.36824C27.67 7.88139 27.0748 6.45819 26.0227 5.40748C24.9707 4.35676 23.5467 3.76329 22.0599 3.75586H9.3895ZM9.3895 7.50453H22.0599C23.1228 7.50453 23.9236 8.2982 23.9236 9.36824V20.1536C23.9303 20.4012 23.8868 20.6476 23.7958 20.8779C23.7048 21.1082 23.5681 21.3178 23.394 21.4939C23.2199 21.67 23.0119 21.8091 22.7826 21.9027C22.5534 21.9963 22.3075 22.0425 22.0599 22.0386H9.3895C9.14037 22.0444 8.89265 21.9996 8.66132 21.907C8.43 21.8143 8.21988 21.6757 8.04367 21.4995C7.86746 21.3233 7.72883 21.1131 7.63616 20.8818C7.54349 20.6505 7.49871 20.4028 7.50453 20.1536V9.36824C7.50453 8.30529 8.31946 7.50453 9.3895 7.50453Z" fill="#8BC0FF"/>
<path d="M37.9333 3.75611C36.4445 3.76166 35.018 4.35408 33.9633 5.4048C32.9086 6.45552 32.3108 7.87977 32.2996 9.36849V34.0998C32.2996 37.1894 34.8507 39.7263 37.9333 39.7263H50.6178C52.1065 39.7189 53.5323 39.1247 54.5857 38.0727C55.639 37.0206 56.235 35.5956 56.2443 34.1069V9.37557C56.2369 7.88439 55.6407 6.45652 54.5856 5.40275C53.5305 4.34898 52.1019 3.75461 50.6107 3.74902L37.9333 3.75611ZM37.9333 7.50478H50.6178C51.6807 7.50478 52.4957 8.29845 52.4957 9.36849V34.0998C52.5006 34.348 52.455 34.5946 52.3619 34.8248C52.2687 35.0549 52.1298 35.2637 51.9536 35.4386C51.7773 35.6135 51.5675 35.7508 51.3367 35.8422C51.1059 35.9337 50.8589 35.9773 50.6107 35.9706H37.9333C37.6857 35.9773 37.4393 35.9339 37.209 35.8429C36.9786 35.7518 36.7691 35.6152 36.593 35.441C36.4169 35.2669 36.2778 35.0589 36.1842 34.8297C36.0906 34.6004 36.0444 34.3545 36.0483 34.1069V9.37557C36.0483 8.29845 36.8632 7.50478 37.9333 7.50478ZM37.9333 43.8222C36.442 43.8315 35.0144 44.4281 33.9599 45.4826C32.9054 46.5371 32.3089 47.9646 32.2996 49.4559V50.618C32.3089 52.1093 32.9054 53.5369 33.9599 54.5914C35.0144 55.6459 36.442 56.2424 37.9333 56.2517H50.6178C52.1078 56.2405 53.5336 55.6432 54.5865 54.5889C55.6395 53.5346 56.2351 52.1081 56.2443 50.618V49.4559C56.2351 47.9646 55.6385 46.5371 54.584 45.4826C53.5295 44.4281 52.102 43.8315 50.6107 43.8222H37.9333ZM37.9333 47.578H50.6178C50.8657 47.5732 51.1121 47.6185 51.3421 47.7111C51.5721 47.8038 51.781 47.942 51.9564 48.1173C52.1317 48.2926 52.2699 48.5016 52.3625 48.7316C52.4552 48.9616 52.5005 49.208 52.4957 49.4559V50.618C52.5005 50.8666 52.455 51.1135 52.3619 51.344C52.2688 51.5745 52.13 51.7838 51.9539 51.9592C51.7778 52.1347 51.568 52.2727 51.3372 52.3649C51.1063 52.4571 50.8592 52.5017 50.6107 52.4959H37.9333C37.6847 52.5017 37.4376 52.4571 37.2068 52.3649C36.9759 52.2727 36.7661 52.1347 36.59 51.9592C36.4139 51.7838 36.2751 51.5745 36.182 51.344C36.0889 51.1135 36.0434 50.8666 36.0483 50.618V49.4559C36.0425 49.2068 36.0873 48.959 36.1799 48.7277C36.2726 48.4964 36.4112 48.2863 36.5874 48.1101C36.7636 47.9339 36.9738 47.7952 37.2051 47.7025C37.4364 47.6099 37.6841 47.5651 37.9333 47.5709V47.578ZM9.3895 30.2307C7.89823 30.2399 6.47069 30.8365 5.41618 31.891C4.36168 32.9455 3.76515 34.373 3.75586 35.8643V50.618C3.76515 52.1093 4.36168 53.5369 5.41618 54.5914C6.47069 55.6459 7.89823 56.2424 9.3895 56.2517H20.1962C23.2858 56.2517 27.6793 53.7006 27.6793 50.618V35.8572C27.6738 34.3672 27.0804 32.9397 26.0281 31.8848C24.9759 30.8299 23.5498 30.2329 22.0599 30.2236L9.3895 30.2307ZM9.3895 33.9864H22.0599C23.1228 33.9864 23.9236 34.7943 23.9236 35.8643V50.618C23.9293 50.865 23.8852 51.1106 23.7937 51.3401C23.7023 51.5696 23.5654 51.7783 23.3914 51.9537C23.2174 52.129 23.0097 52.2674 22.7809 52.3606C22.5521 52.4538 22.3069 52.4998 22.0599 52.4959H9.3895C9.14098 52.5017 8.89386 52.4571 8.66302 52.3649C8.43218 52.2727 8.22238 52.1347 8.04628 51.9592C7.87017 51.7838 7.73139 51.5745 7.63828 51.344C7.54518 51.1135 7.49968 50.8666 7.50453 50.618V35.8572C7.49871 35.6081 7.54349 35.3604 7.63616 35.129C7.72883 34.8977 7.86746 34.6876 8.04367 34.5114C8.21988 34.3352 8.43 34.1965 8.66132 34.1039C8.89265 34.0112 9.14037 33.9664 9.3895 33.9722V33.9864Z" fill="#B2D5FF"/>
</svg>
