<svg width="60" height="60" viewBox="0 0 60 60" fill="none" xmlns="http://www.w3.org/2000/svg">
<path d="M55.0004 18.8886C53.469 18.8886 52.2227 17.6423 52.2227 16.1108C52.2227 14.5793 53.469 13.333 55.0004 13.333C56.5319 13.333 57.7782 14.5793 57.7782 16.1108C57.7782 17.6423 56.5319 18.8886 55.0004 18.8886ZM55.0004 15.1849C54.7549 15.1849 54.5193 15.2824 54.3457 15.4561C54.1721 15.6297 54.0745 15.8652 54.0745 16.1108C54.0745 16.3564 54.1721 16.5919 54.3457 16.7655C54.5193 16.9392 54.7549 17.0367 55.0004 17.0367C55.246 17.0367 55.4815 16.9392 55.6552 16.7655C55.8288 16.5919 55.9264 16.3564 55.9264 16.1108C55.9264 15.8652 55.8288 15.6297 55.6552 15.4561C55.4815 15.2824 55.246 15.1849 55.0004 15.1849Z" fill="#ECF5FF"/>
<path d="M41.5734 43.427H12.8697C11.8874 43.427 10.9454 43.0368 10.2508 42.3422C9.55623 41.6476 9.16602 40.7056 9.16602 39.7233V17.0381H45.2771V39.7233C45.2771 40.7056 44.8869 41.6476 44.1923 42.3422C43.4978 43.0368 42.5557 43.427 41.5734 43.427Z" fill="white"/>
<path d="M17.0364 10.5557H12.8697C11.8874 10.5557 10.9454 10.9459 10.2508 11.6405C9.55623 12.335 9.16602 13.2771 9.16602 14.2594V17.0371H13.3327V14.2594C13.3327 13.2771 13.7229 12.335 14.4175 11.6405C15.1121 10.9459 16.0541 10.5557 17.0364 10.5557Z" fill="#ECF5FF"/>
<path d="M13.3327 39.7233V17.0381H9.16602V39.7233C9.16602 40.7056 9.55623 41.6476 10.2508 42.3422C10.9454 43.0368 11.8874 43.427 12.8697 43.427H17.0364C16.0541 43.427 15.1121 43.0368 14.4175 42.3422C13.7229 41.6476 13.3327 40.7056 13.3327 39.7233Z" fill="#ECF5FF"/>
<path d="M44.3516 37.4072H47.1293V50.3702H44.3516V37.4072Z" fill="#8BC0FF"/>
<path d="M39.2588 42.5003H52.2218V45.278H39.2588V42.5003ZM35.5551 44.8151H12.8699C11.5196 44.8141 10.2248 44.2772 9.27001 43.3224C8.31518 42.3676 7.77832 41.0728 7.77734 39.7225V14.7225C7.77832 13.3721 8.31518 12.0774 9.27001 11.1226C10.2248 10.1677 11.5196 9.63086 12.8699 9.62988H41.5736C42.924 9.63086 44.2187 10.1677 45.1736 11.1226C46.1284 12.0774 46.6653 13.3721 46.6662 14.7225V33.704H43.8885V14.7225C43.8885 13.4465 42.8496 12.4077 41.5736 12.4077H12.8699C11.594 12.4077 10.5551 13.4465 10.5551 14.7225V39.7225C10.5551 40.9984 11.594 42.0373 12.8699 42.0373H35.5551V44.8151Z" fill="#8BC0FF"/>
<path d="M9.16602 16.1113H45.2771V18.8891H9.16602V16.1113Z" fill="#8BC0FF"/>
</svg>
