<svg width="60" height="60" viewBox="0 0 60 60" fill="none" xmlns="http://www.w3.org/2000/svg">
<g clip-path="url(#clip0_1056_35818)">
<path d="M43.2114 53.6141H0.966797V44.1361C0.966797 33.2831 9.44396 24.4922 19.9105 24.4922H24.3145C34.7806 24.4922 43.2581 33.2831 43.2581 44.1361V53.6141H43.2114Z" fill="#ECF5FF"/>
<path d="M43.2592 54.5809H0.967741C0.840611 54.581 0.714698 54.5561 0.597214 54.5075C0.479731 54.459 0.372985 54.3877 0.28309 54.2978C0.193195 54.2079 0.121918 54.1011 0.0733413 53.9837C0.0247642 53.8662 -0.000158453 53.7403 7.58011e-07 53.6131V44.1351C7.58011e-07 32.7703 8.93224 23.5234 19.9115 23.5234H24.3154C35.2947 23.5234 44.2268 32.7703 44.2268 44.1351V53.6131C44.2268 54.1485 43.7941 54.5809 43.2592 54.5809ZM1.93548 52.6454H42.2914V44.1351C42.2914 33.8364 34.2271 25.4589 24.3154 25.4589H19.9115C9.99966 25.4599 1.93548 33.8377 1.93548 44.1351V52.6454Z" fill="#8BC0FF"/>
<path d="M33.0789 53.1578C32.5436 53.1578 32.1112 52.725 32.1112 52.1901V47.5244C32.1112 46.9895 32.5436 46.5566 33.0789 46.5566C33.6138 46.5566 34.0467 46.9895 34.0467 47.5244V52.1901C34.0467 52.724 33.6129 53.1578 33.0789 53.1578ZM11.1045 54.1256C10.5691 54.1256 10.1367 53.6928 10.1367 53.1578V47.5244C10.1367 46.9895 10.5691 46.5566 11.1045 46.5566C11.6394 46.5566 12.0722 46.9895 12.0722 47.5244V53.1578C12.0722 53.6918 11.6384 54.1256 11.1045 54.1256Z" fill="#8BC0FF"/>
<path d="M35.3979 14.8667C35.3979 7.19046 29.4392 0.967773 22.0895 0.967773C14.7394 0.967773 8.78125 7.19046 8.78125 14.8667C8.78125 22.5426 14.7394 28.7653 22.0895 28.7653C29.4392 28.7653 35.3979 22.5426 35.3979 14.8667Z" fill="#ECF5FF"/>
<path d="M22.0896 29.733C14.2176 29.733 7.81445 23.0632 7.81445 14.8667C7.81445 6.66978 14.2176 0 22.0895 0C29.9608 0 36.3656 6.66882 36.3656 14.8653C36.3656 23.0622 29.9609 29.733 22.0895 29.733H22.0896ZM22.0896 1.93548C15.2852 1.93548 9.74981 7.73623 9.74981 14.8653C9.74981 21.9958 15.2849 27.7965 22.0893 27.7965C28.8933 27.7965 34.43 21.9958 34.43 14.8653C34.4301 7.73623 28.8934 1.93548 22.0895 1.93548H22.0896Z" fill="#8BC0FF"/>
<path d="M58.1706 41.6647L55.0198 41.0802C54.9551 40.809 54.9452 40.5476 54.9037 40.31C54.8341 40.0666 54.8021 39.7727 54.705 39.525L57.3627 37.6572C57.8167 37.3378 57.9315 36.6969 57.6135 36.2646L54.3715 31.461C54.0577 31.0001 53.4279 30.883 53.0012 31.2072L50.3436 33.075C50.1489 32.895 49.9179 32.765 49.6915 32.6087C49.4922 32.4565 49.2337 32.3218 49.0238 32.2255L49.5994 29.0212C49.7 28.4635 49.3693 27.9419 48.7932 27.8357L43.1494 26.7895C42.6018 26.6878 42.0881 27.0247 41.9823 27.6092L41.4067 30.8131C41.1397 30.8792 40.8832 30.8887 40.6487 30.9321C40.4097 31.003 40.1205 31.0361 39.8766 31.1344L38.0409 28.4334C37.7271 27.9731 37.0973 27.8559 36.6706 28.1801L31.939 31.5063C31.4853 31.8257 31.3701 32.4661 31.6886 32.8989L33.5244 35.5999C33.3471 35.7974 33.2205 36.0322 33.0655 36.2628C32.9157 36.465 32.7839 36.7283 32.6888 36.9409L29.5381 36.3564C28.9904 36.2548 28.4763 36.5917 28.3709 37.1762L27.3347 42.943C27.2066 43.4945 27.5648 44.0222 28.0855 44.1187L31.2364 44.7032C31.3016 44.9744 31.311 45.2357 31.3525 45.4739C31.3951 45.7116 31.4541 46.0107 31.551 46.2587L28.9488 48.1371C28.4948 48.4564 28.3799 49.0967 28.6979 49.5295L31.9674 54.338C32.2807 54.7987 32.9105 54.916 33.3377 54.5918L35.9948 52.7239C36.1894 52.9039 36.4206 53.0338 36.6473 53.1902C36.8467 53.3424 37.1046 53.4771 37.315 53.5735L36.739 56.7777C36.6383 57.3353 36.9695 57.8569 37.5451 57.9633L43.2172 59.0142C43.765 59.1158 44.2786 58.7793 44.384 58.1948L44.96 54.9906C45.227 54.9244 45.4836 54.915 45.7179 54.8716C45.9518 54.829 46.2463 54.768 46.49 54.6693L48.3258 57.3703C48.6396 57.8319 49.2694 57.9477 49.6961 57.6236L54.4275 54.2973C54.8812 53.978 54.9966 53.3377 54.6779 52.9049L52.8423 50.2039C53.0195 50.0064 53.1461 49.7715 53.3011 49.541C53.4509 49.3386 53.5827 49.0755 53.6773 48.8629L56.8285 49.4474C57.3762 49.549 57.8899 49.212 57.9957 48.6275L59.0321 42.8607C59.0496 42.2879 58.7183 41.7663 58.1706 41.6647Z" fill="white"/>
<path d="M43.4117 59.9996C43.2872 59.9995 43.1629 59.9881 43.0404 59.9656L37.3682 58.9147C36.2846 58.7134 35.5895 57.6993 35.7861 56.6059L36.2387 54.0859C36.1778 54.0457 36.1183 54.0034 36.0602 53.9592L35.9873 53.9116L33.894 55.3835C33.5156 55.6731 32.9872 55.8036 32.4746 55.7176C32.2113 55.674 31.9597 55.5774 31.735 55.4336C31.5102 55.2899 31.317 55.1019 31.167 54.8812L27.8981 50.0736C27.6126 49.6857 27.4908 49.1688 27.5768 48.648C27.6627 48.1225 27.9601 47.6473 28.3934 47.3434L30.4422 45.8648C30.4268 45.7899 30.4127 45.7148 30.3997 45.6394C30.3927 45.6027 30.3866 45.5659 30.3812 45.5289L27.9076 45.0704C27.4006 44.9756 26.9447 44.6717 26.6582 44.2351C26.3643 43.7862 26.2703 43.2499 26.3912 42.7244L27.419 37.0054C27.5149 36.471 27.8041 36.0131 28.2355 35.7144C28.6646 35.4172 29.1891 35.3076 29.7136 35.4045L32.1689 35.8606C32.2071 35.7995 32.2468 35.7414 32.2865 35.6871L32.3474 35.5883L30.8874 33.4411C30.6028 33.0551 30.4809 32.539 30.5651 32.0183C30.651 31.4929 30.9483 31.017 31.3807 30.7118L36.114 27.3847C36.4935 27.0965 37.0227 26.9688 37.5339 27.0511C38.0632 27.137 38.5395 27.4418 38.8415 27.887L40.294 30.0228C40.3209 30.0162 40.3479 30.0086 40.3744 30.0016L40.4726 29.9784C40.5066 29.9719 40.5415 29.9657 40.5766 29.961L41.0302 27.4363C41.128 26.8999 41.4172 26.4435 41.8492 26.1443C42.2767 25.8479 42.8002 25.7398 43.3257 25.8359L48.9705 26.882C50.0545 27.0828 50.7491 28.0972 50.5526 29.1906L50.0989 31.7108C50.1604 31.7508 50.2205 31.793 50.2791 31.8373L50.3513 31.8851L52.4446 30.4131C52.8241 30.1244 53.3533 29.9958 53.8645 30.079C54.3938 30.165 54.8701 30.4698 55.1721 30.9154L58.4154 35.7211C58.698 36.1043 58.82 36.6202 58.7359 37.1405C58.6499 37.666 58.3527 38.1422 57.9203 38.4471L55.8067 39.9317C55.8151 39.9704 55.8241 40.0083 55.8336 40.0437L55.8548 40.1387C55.8619 40.1766 55.8686 40.2143 55.8742 40.2531L58.347 40.7115C59.3378 40.8957 60.0321 41.8129 59.9989 42.8902L59.9833 43.0315L58.9471 48.7983C58.8503 49.3332 58.561 49.791 58.1282 50.0902C57.6987 50.386 57.1761 50.4918 56.6505 50.3978L54.1973 49.9418C54.1585 50.0027 54.1187 50.0609 54.0791 50.1152L54.0182 50.2131L55.4787 52.3611C55.7642 52.7495 55.886 53.266 55.8 53.7868C55.7135 54.3122 55.4168 54.7876 54.983 55.0915L50.2516 58.4176C49.8726 58.7067 49.3453 58.8362 48.8322 58.7521C48.5692 58.7082 48.3178 58.6116 48.0931 58.4681C47.8685 58.3246 47.6751 58.1372 47.5246 57.9172L46.0791 55.7898C46.0158 55.8026 45.954 55.8144 45.894 55.8258C45.8594 55.8314 45.8254 55.8386 45.7895 55.8433L45.3358 58.367C45.2399 58.9015 44.9508 59.359 44.5188 59.658C44.1929 59.8814 43.8068 60.0006 43.4117 59.9996ZM36.0795 51.4818L36.6532 52.0138C36.7519 52.105 36.8653 52.1735 36.9783 52.2483L37.1999 52.3952C37.2967 52.467 37.4399 52.5643 37.7206 52.6943L38.4 53.0076L37.6927 56.9475L43.3943 58.0614L44.1191 54.1989L44.731 54.0491C44.9305 54.0008 45.1256 53.9743 45.3147 53.9512C45.394 53.9408 45.4711 53.9319 45.5457 53.9186C45.6628 53.8968 45.9473 53.8439 46.1302 53.7712L46.8531 53.481L49.1284 56.8257L53.8721 53.5051L51.6173 50.1219L52.1214 49.5577C52.2116 49.4571 52.2793 49.3408 52.3529 49.225L52.4981 49.0005C52.5684 48.9028 52.6653 48.7544 52.7961 48.4651L53.1067 47.7705L57.0054 48.4931L58.0634 42.7759C58.055 42.6772 58.0129 42.6182 57.995 42.6143L54.2246 41.9145L54.0801 41.3012C54.0318 41.1009 54.0078 40.9051 53.9845 40.7176C53.9765 40.6487 53.969 40.5801 53.9591 40.5154C53.9325 40.4122 53.909 40.3082 53.8886 40.2035C53.8656 40.0934 53.8461 39.978 53.8063 39.8745L53.5286 39.1682L56.8084 36.8631L53.5711 31.9999L50.2625 34.3148L49.6889 33.7827C49.59 33.6916 49.4767 33.623 49.3632 33.5484L49.1416 33.4014C49.0452 33.3295 48.9006 33.2308 48.6214 33.1023L47.941 32.7899L48.6493 28.849L42.9756 27.74L42.2516 31.6006L41.6426 31.7513C41.4427 31.8005 41.248 31.8269 41.0595 31.8501C40.9933 31.8586 40.9286 31.8667 40.8667 31.8761C40.7641 31.903 40.6609 31.9272 40.5571 31.9488C40.4513 31.9711 40.3412 31.9904 40.2444 32.0291L39.5195 32.3255L37.2424 28.9767L32.4986 32.2961L34.7546 35.6814L34.2475 36.2456C34.1582 36.3453 34.0915 36.4597 34.0188 36.5745L33.8728 36.8013C33.8024 36.8986 33.7055 37.0469 33.5747 37.3361L33.2641 38.0313L29.3653 37.3083L28.2918 43.1147L32.0341 43.8656L32.1811 44.4771C32.2299 44.6793 32.2549 44.8759 32.278 45.0653C32.2874 45.1466 32.2974 45.226 32.3102 45.3024C32.3305 45.4178 32.3815 45.7131 32.4562 45.9055L32.7297 46.6044L29.5161 48.9212L32.7685 53.7934L36.0795 51.4818Z" fill="#8BC0FF"/>
<path d="M47.9779 39.4573C47.1273 38.206 45.8227 37.2732 44.2336 36.9779C42.6444 36.684 41.0993 37.0885 39.8683 37.9537C38.6359 38.8188 37.7187 40.1452 37.4282 41.7617C37.1381 43.3778 37.535 44.9485 38.3855 46.1998C39.236 47.4511 40.5408 48.3838 42.1298 48.6791C43.7185 48.9731 45.2641 48.5686 46.4951 47.7034C47.727 46.8381 48.6446 45.5117 48.9347 43.8953C49.2253 42.2802 48.8015 40.7037 47.9779 39.4573Z" fill="white"/>
<path d="M43.1669 49.7423C42.7633 49.7423 42.3578 49.706 41.9543 49.6312C40.1785 49.3013 38.6272 48.2775 37.5838 46.7455C36.5467 45.2174 36.1526 43.3863 36.4748 41.5921C36.799 39.7941 37.8064 38.2216 39.3115 37.1626C40.8221 36.1012 42.6337 35.7016 44.4115 36.0276C46.1881 36.3578 47.7386 37.3824 48.7796 38.9142L48.7875 38.9251C49.8144 40.4793 50.2052 42.3065 49.89 44.0667C49.5653 45.8638 48.5593 47.4364 47.0533 48.4953C45.8852 49.3155 44.5381 49.7423 43.1669 49.7423ZM43.2007 37.8512C42.2232 37.8512 41.2616 38.1568 40.4252 38.7461C39.3393 39.5087 38.6135 40.6409 38.3815 41.9348C38.149 43.2276 38.4353 44.5496 39.1867 45.6577C39.9357 46.7587 41.0447 47.4935 42.3087 47.7289C43.5665 47.9608 44.8585 47.6726 45.9405 46.9119C47.0264 46.1492 47.7522 45.017 47.9843 43.7241C48.2116 42.4572 47.9243 41.1332 47.1752 39.9964C46.4283 38.8981 45.321 38.1643 44.0579 37.9304C43.7752 37.878 43.4883 37.8515 43.2008 37.851L43.2007 37.8512Z" fill="#8BC0FF"/>
</g>
<defs>
<clipPath id="clip0_1056_35818">
<rect width="60" height="60" fill="white"/>
</clipPath>
</defs>
</svg>
