<svg width="86" height="51" viewBox="0 0 86 51" fill="none" xmlns="http://www.w3.org/2000/svg">
<path fill-rule="evenodd" clip-rule="evenodd" d="M30.3399 11.6663C30.3399 17.5571 35.1153 22.3326 41.0062 22.3326C46.897 22.3326 51.6725 17.5571 51.6725 11.6663C51.6725 5.77547 46.897 1 41.0062 1C35.1153 1 30.3399 5.77547 30.3399 11.6663ZM17.0056 30.3321C12.5875 30.3321 9.00586 26.7505 9.00586 22.3324C9.00586 17.9143 12.5875 14.3327 17.0056 14.3327C21.4237 14.3327 25.0053 17.9143 25.0053 22.3324C25.0053 26.7505 21.4237 30.3321 17.0056 30.3321ZM65.004 30.3321C60.5859 30.3321 57.0043 26.7505 57.0043 22.3324C57.0043 17.9143 60.5859 14.3327 65.004 14.3327C69.4221 14.3327 73.0037 17.9143 73.0037 22.3324C73.0037 26.7505 69.4221 30.3321 65.004 30.3321Z" fill="#ECF5FF"/>
<path d="M41.0062 21.3326C35.6676 21.3326 31.3399 17.0049 31.3399 11.6663H29.3399C29.3399 18.1094 34.5631 23.3326 41.0062 23.3326V21.3326ZM50.6725 11.6663C50.6725 17.0049 46.3447 21.3326 41.0062 21.3326V23.3326C47.4493 23.3326 52.6725 18.1094 52.6725 11.6663H50.6725ZM41.0062 2C46.3447 2 50.6725 6.32775 50.6725 11.6663H52.6725C52.6725 5.22318 47.4493 0 41.0062 0V2ZM31.3399 11.6663C31.3399 6.32775 35.6676 2 41.0062 2V0C34.5631 0 29.3399 5.22318 29.3399 11.6663H31.3399ZM8.00586 22.3324C8.00586 27.3028 12.0352 31.3321 17.0056 31.3321V29.3321C13.1397 29.3321 10.0059 26.1983 10.0059 22.3324H8.00586ZM17.0056 13.3327C12.0352 13.3327 8.00586 17.362 8.00586 22.3324H10.0059C10.0059 18.4666 13.1397 15.3327 17.0056 15.3327V13.3327ZM26.0053 22.3324C26.0053 17.362 21.976 13.3327 17.0056 13.3327V15.3327C20.8714 15.3327 24.0053 18.4666 24.0053 22.3324H26.0053ZM17.0056 31.3321C21.976 31.3321 26.0053 27.3028 26.0053 22.3324H24.0053C24.0053 26.1983 20.8714 29.3321 17.0056 29.3321V31.3321ZM56.0043 22.3324C56.0043 27.3028 60.0336 31.3321 65.004 31.3321V29.3321C61.1382 29.3321 58.0043 26.1983 58.0043 22.3324H56.0043ZM65.004 13.3327C60.0336 13.3327 56.0043 17.362 56.0043 22.3324H58.0043C58.0043 18.4666 61.1382 15.3327 65.004 15.3327V13.3327ZM74.0037 22.3324C74.0037 17.362 69.9744 13.3327 65.004 13.3327V15.3327C68.8699 15.3327 72.0037 18.4666 72.0037 22.3324H74.0037ZM65.004 31.3321C69.9744 31.3321 74.0037 27.3028 74.0037 22.3324H72.0037C72.0037 26.1982 68.8699 29.3321 65.004 29.3321V31.3321Z" fill="#8BC0FF"/>
<path fill-rule="evenodd" clip-rule="evenodd" d="M71.7521 48.9995H83.3501C84.7969 48.9995 84.8193 47.7904 84.7969 47.3995C84.2325 37.5862 76.6568 33 67.4361 33C67.1002 33 66.7667 33.0066 66.4355 33.0198C69.7742 37.4731 71.752 43.0053 71.7521 48.9995Z" fill="#ECF5FF"/>
<path d="M71.7521 48.9995L70.7521 48.9995L70.7521 49.9995H71.7521V48.9995ZM84.7969 47.3995L83.7985 47.4569V47.4569L84.7969 47.3995ZM66.4355 33.0198L66.3956 32.0206L64.4936 32.0966L65.6354 33.6197L66.4355 33.0198ZM83.3501 47.9995H71.7521V49.9995H83.3501V47.9995ZM83.7985 47.4569C83.802 47.5174 83.803 47.6004 83.7918 47.6874C83.7804 47.7769 83.7597 47.8418 83.7383 47.8826C83.7216 47.9147 83.7074 47.9281 83.6866 47.9402C83.6625 47.9542 83.5711 47.9995 83.3501 47.9995V49.9995C83.8525 49.9995 84.3064 49.8936 84.6928 49.6687C85.0824 49.4419 85.3437 49.1286 85.5106 48.8096C85.8241 48.2102 85.8091 47.5831 85.7952 47.3421L83.7985 47.4569ZM67.4361 34C71.893 34 75.8596 35.1096 78.7569 37.3154C81.6271 39.5007 83.532 42.8233 83.7985 47.4569L85.7952 47.3421C85.4973 42.1624 83.3323 38.2853 79.9684 35.7241C76.6315 33.1835 72.1999 32 67.4361 32V34ZM66.4755 34.0191C66.7931 34.0064 67.1134 34 67.4361 34V32C67.0871 32 66.7402 32.0069 66.3956 32.0206L66.4755 34.0191ZM72.7521 48.9994C72.752 42.7817 70.6996 37.0404 67.2357 32.42L65.6354 33.6197C68.8488 37.9059 70.752 43.229 70.7521 48.9995L72.7521 48.9994Z" fill="#8BC0FF"/>
<path d="M42.3923 26.6631C35.9359 26.6631 29.9802 28.3214 25.4827 31.6887C20.9631 35.0726 17.982 40.1363 17.4425 46.7794C17.4044 47.2489 17.5919 47.6818 17.7462 47.965C17.9193 48.2826 18.1519 48.5925 18.3977 48.862C18.6435 49.1314 18.9297 49.39 19.227 49.5897C19.4883 49.7652 19.9039 49.9957 20.3774 49.9957H20.4916H20.6056H20.7195H20.8332H20.9469H21.0605H21.1739H21.2873H21.4005H21.5137H21.6267H21.7396H21.8524H21.9651H22.0776H22.1901H22.3025H22.4147H22.5269H22.6389H22.7508H22.8626H22.9743H23.0859H23.1974H23.3087H23.42H23.5312H23.6422H23.7531H23.8639H23.9747H24.0853H24.1957H24.3061H24.4164H24.5265H24.6366H24.7465H24.8564H24.9661H25.0757H25.1852H25.2946H25.4039H25.513H25.6221H25.7311H25.8399H25.9486H26.0572H26.1658H26.2742H26.3824H26.4906H26.5987H26.7067H26.8145H26.9223H27.0299H27.1374H27.2448H27.3521H27.4593H27.5664H27.6734H27.7802H27.887H27.9936H28.1002H28.2066H28.3129H28.4191H28.5252H28.6312H28.737H28.8428H28.9485H29.054H29.1594H29.2648H29.37H29.4751H29.5801H29.685H29.7897H29.8944H29.999H30.1034H30.2077H30.312H30.4161H30.5201H30.624H30.7278H30.8314H30.935H31.0385H31.1418H31.245H31.3482H31.4512H31.5541H31.6569H31.7596H31.8621H31.9646H32.067H32.1692H32.2713H32.3734H32.4753H32.5771H32.6788H32.7804H32.8819H32.9832H33.0845H33.1856H33.2867H33.3876H33.4884H33.5891H33.6897H33.7902H33.8906H33.9908H34.091H34.1911H34.291H34.3908H34.4905H34.5901H34.6896H34.789H34.8883H34.9875H35.0865H35.1855H35.2843H35.3831H35.4817H35.5802H35.6786H35.7769H35.8751H35.9731H36.0711H36.1689H36.2667H36.3643H36.4618H36.5592H36.6565H36.7537H36.8508H36.9478H37.0446H37.1414H37.238H37.3346H37.431H37.5273H37.6235H37.7196H37.8156H37.9114H38.0072H38.1028H38.1984H38.2938H38.3891H38.4844H38.5795H38.6744H38.7693H38.8641H38.9588H39.0533H39.1478H39.2421H39.3363H39.4304H39.5244H39.6183H39.7121H39.8058H39.8993H39.9928H40.0861H40.1794H40.2725H40.3655H40.4584H40.5512H40.6439H40.7365H40.8289H40.9213H41.0135H41.1057H41.1977H41.2896H41.3814H41.4731H41.5647H41.6562H41.7475H41.8388H41.9299H42.021H42.1119H42.2027H42.2934H42.384H42.4745H42.5649H42.6551H42.7453H42.8353H42.9253H43.0151H43.1048H43.1944H43.2839H43.3733H43.4626H43.5518H43.6408H43.7298H43.8186H43.9073H43.9959H44.0844H44.1728H44.2611H44.3493H44.4374H44.5253H44.6132H44.7009H44.7886H44.8761H44.9635H45.0508H45.138H45.225H45.312H45.3989H45.4856H45.5723H45.6588H45.7452H45.8315H45.9177H46.0038H46.0898H46.1757H46.2614H46.3471H46.4326H46.518H46.6034H46.6886H46.7737H46.8587H46.9435H47.0283H47.113H47.1975H47.282H47.3663H47.4505H47.5346H47.6186H47.7025H47.7863H47.87H47.9535H48.037H48.1203H48.2036H48.2867H48.3697H48.4526H48.5354H48.6181H48.7006H48.7831H48.8655H48.9477H49.0298H49.1119H49.1938H49.2756H49.3573H49.4388H49.5203H49.6017H49.6829H49.7641H49.8451H49.926H50.0068H50.0876H50.1681H50.2486H50.329H50.4093H50.4894H50.5695H50.6494H50.7292H50.8089H50.8885H50.968H51.0474H51.1267H51.2059H51.2849H51.3639H51.4427H51.5214H51.6H51.6786H51.7569H51.8352H51.9134H51.9915H52.0694H52.1473H52.225H52.3026H52.3802H52.4576H52.5349H52.612H52.6891H52.7661H52.8429H52.9197H52.9963H53.0729H53.1493H53.2256H53.3018H53.3779H53.4538H53.5297H53.6055H53.6811H53.7567H53.8321H53.9074H53.9826H54.0577H54.1327H54.2076H54.2823H54.357H54.4316H54.506H54.5803H54.6545H54.7287H54.8027H54.8765H54.9503H55.024H55.0975H55.171H55.2443H55.3176H55.3907H55.4637H55.5366H55.6094H55.6821H55.7546H55.8271H55.8995H55.9717H56.0438H56.1158H56.1878H56.2596H56.3313H56.4028H56.4743H56.5457H56.6169H56.6881H56.7591H56.83H56.9008H56.9715H57.0421H57.1126H57.183H57.2532H57.3234H57.3934H57.4634H57.5332H57.6029H57.6725H57.742H57.8114H57.8807H57.9498H58.0189H58.0878H58.1566H58.2254H58.294H58.3625H58.4309H58.4992H58.5673H58.6354H58.7034H58.7712H58.8389H58.9066H58.9741H59.0415H59.1088H59.176H59.243H59.31H59.3769H59.4436H59.5102H59.5768H59.6432H59.7095H59.7757H59.8418H59.9077H59.9736H60.0394H60.105H60.1706H60.236H60.3013H60.3665H60.4316H60.4966H60.5615H60.6262H60.6909H60.7554H60.8199H60.8842H60.9484H61.0125H61.0765H61.1404H61.2042H61.2679H61.3314H61.3949H61.4582H61.5214H61.5845H61.6476H61.7104H61.7732H61.8359H61.8985H61.9609H62.0233H62.0855H62.1477H62.2097H62.2716H62.3334H62.3951H62.4567H62.5181H62.5795H62.6407H62.7019H62.7629H62.8238H62.8846H62.9453H63.0059H63.0664H63.1268H63.187H63.2472H63.3072H63.3672H63.427H63.4867H63.5463H63.6058H63.6652H63.7244H63.7836H63.8427H63.9016H63.9604H64.0191H64.0778H64.1363H64.1947H64.2529H64.3111H64.3692H64.4271C65.0625 49.9957 65.6161 49.8672 66.0786 49.608C66.5457 49.3461 66.8638 48.9821 67.0703 48.6018C67.4625 47.8798 67.447 47.1119 67.4285 46.8028C67.0207 39.9741 64.0616 34.8961 59.4972 31.5496C54.9628 28.2252 48.9218 26.6631 42.3923 26.6631Z" fill="#ECF5FF" stroke="#8BC0FF" stroke-width="2"/>
<path d="M12.4377 48.9953C12.971 42.5955 16.6598 35.6624 18.4375 32.9958C6.17125 31.9292 1.7714 41.44 1.10476 46.3287C0.57144 47.9286 2.21583 48.7731 3.10469 48.9953H12.4377Z" fill="#ECF5FF" stroke="#8BC0FF" stroke-width="2"/>
</svg>
