<svg width="63" height="60" viewBox="0 0 63 60" fill="none" xmlns="http://www.w3.org/2000/svg">
<path fill-rule="evenodd" clip-rule="evenodd" d="M13.5 17.5C13.5 23.0228 17.9772 27.5 23.5 27.5C29.0228 27.5 33.5 23.0228 33.5 17.5C33.5 11.9772 29.0228 7.5 23.5 7.5C17.9772 7.5 13.5 11.9772 13.5 17.5ZM38.5 27.5C38.5 31.6421 41.8579 35 46 35C50.1421 35 53.5 31.6421 53.5 27.5C53.5 23.3579 50.1421 20 46 20C41.8579 20 38.5 23.3579 38.5 27.5Z" fill="#ECF5FF"/>
<path d="M23.5 26.5C18.5294 26.5 14.5 22.4706 14.5 17.5H12.5C12.5 23.5751 17.4249 28.5 23.5 28.5V26.5ZM32.5 17.5C32.5 22.4706 28.4706 26.5 23.5 26.5V28.5C29.5751 28.5 34.5 23.5751 34.5 17.5H32.5ZM23.5 8.5C28.4706 8.5 32.5 12.5294 32.5 17.5H34.5C34.5 11.4249 29.5751 6.5 23.5 6.5V8.5ZM14.5 17.5C14.5 12.5294 18.5294 8.5 23.5 8.5V6.5C17.4249 6.5 12.5 11.4249 12.5 17.5H14.5ZM46 34C42.4102 34 39.5 31.0898 39.5 27.5H37.5C37.5 32.1944 41.3056 36 46 36V34ZM52.5 27.5C52.5 31.0898 49.5899 34 46 34V36C50.6944 36 54.5 32.1944 54.5 27.5H52.5ZM46 21C49.5899 21 52.5 23.9101 52.5 27.5H54.5C54.5 22.8056 50.6944 19 46 19V21ZM39.5 27.5C39.5 23.9101 42.4102 21 46 21V19C41.3056 19 37.5 22.8056 37.5 27.5H39.5Z" fill="#8BC0FF"/>
<path fill-rule="evenodd" clip-rule="evenodd" d="M50.0009 52.5004L59.6408 52.5004C60.9972 52.5004 61.0182 51.3669 60.9972 51.0004C60.4739 41.9008 53.5202 37.595 45.0039 37.502C48.1416 41.68 50.0009 46.8731 50.0009 52.5004Z" fill="#ECF5FF"/>
<path d="M59.6408 52.5004V53.5004V52.5004ZM50.0009 52.5004H49.0009V53.5004H50.0009L50.0009 52.5004ZM60.9972 51.0004L61.9955 50.943L60.9972 51.0004ZM45.0039 37.502L45.0148 36.502L42.9857 36.4798L44.2043 38.1025L45.0039 37.502ZM59.6408 51.5004L50.0009 51.5004L50.0009 53.5004L59.6408 53.5004V51.5004ZM59.9988 51.0578C60.0019 51.1122 60.0028 51.1859 59.993 51.2624C59.9829 51.3413 59.965 51.3945 59.9494 51.4244C59.9384 51.4455 59.9328 51.4487 59.9248 51.4533C59.9136 51.4599 59.8392 51.5004 59.6408 51.5004V53.5004C60.1206 53.5004 60.5575 53.3992 60.931 53.1818C61.3078 52.9625 61.5605 52.6594 61.7216 52.3513C62.0237 51.7739 62.0087 51.1718 61.9955 50.943L59.9988 51.0578ZM44.993 38.5019C49.0974 38.5468 52.7338 39.6068 55.3849 41.6638C58.0103 43.7008 59.7527 46.7773 59.9988 51.0578L61.9955 50.943C61.7184 46.1239 59.7222 42.4977 56.6109 40.0836C53.5253 37.6895 49.4266 36.5502 45.0148 36.502L44.993 38.5019ZM51.0009 52.5004C51.0009 46.6491 49.0668 41.2467 45.8035 36.9014L44.2043 38.1025C47.2165 42.1133 49.0009 47.097 49.0009 52.5004H51.0009Z" fill="#8BC0FF"/>
<path d="M1.00163 50.498C1.97065 38.5663 11.6548 32.5 23.4584 32.5C35.428 32.5 45.2622 38.233 45.9948 50.5C46.024 50.9887 45.9948 52.5 44.1168 52.5C34.8528 52.5 21.0868 52.5 2.81876 52.5C2.19178 52.5 0.948846 51.1479 1.00163 50.498Z" fill="#ECF5FF" stroke="#8BC0FF" stroke-width="2"/>
</svg>
