<svg width="50" height="50" viewBox="0 0 50 50" fill="none" xmlns="http://www.w3.org/2000/svg">
<path d="M10.9375 46.875C15.2522 46.875 18.75 43.3772 18.75 39.0625C18.75 34.7478 15.2522 31.25 10.9375 31.25C6.62278 31.25 3.125 34.7478 3.125 39.0625C3.125 43.3772 6.62278 46.875 10.9375 46.875ZM39.0625 18.75C43.3772 18.75 46.875 15.2522 46.875 10.9375C46.875 6.62278 43.3772 3.125 39.0625 3.125C34.7478 3.125 31.25 6.62278 31.25 10.9375C31.25 15.2522 34.7478 18.75 39.0625 18.75ZM39.0625 46.875C34.7478 46.875 31.25 43.3772 31.25 39.0625C31.25 34.7478 34.7478 31.25 39.0625 31.25C43.3772 31.25 46.875 34.7478 46.875 39.0625C46.875 43.3772 43.3772 46.875 39.0625 46.875ZM50 10.9375C50 16.9781 45.1031 21.875 39.0625 21.875C33.0219 21.875 28.125 16.9781 28.125 10.9375C28.125 4.89689 33.0219 0 39.0625 0C45.1031 0 50 4.89689 50 10.9375ZM21.875 39.0625C21.875 45.1031 16.9781 50 10.9375 50C4.89689 50 0 45.1031 0 39.0625C0 33.0219 4.89689 28.125 10.9375 28.125C16.9781 28.125 21.875 33.0219 21.875 39.0625ZM39.0625 50C45.1031 50 50 45.1031 50 39.0625C50 33.0219 45.1031 28.125 39.0625 28.125C33.0219 28.125 28.125 33.0219 28.125 39.0625C28.125 45.1031 33.0219 50 39.0625 50Z" fill="#B2D5FF"/>
<path d="M10.9375 15.625C8.34867 15.625 6.25 13.5263 6.25 10.9375C6.25 8.34867 8.34867 6.25 10.9375 6.25C13.5263 6.25 15.625 8.34867 15.625 10.9375C15.625 13.5263 13.5263 15.625 10.9375 15.625ZM10.9375 21.875C16.9781 21.875 21.875 16.9781 21.875 10.9375C21.875 4.89689 16.9781 0 10.9375 0C4.89689 0 0 4.89689 0 10.9375C0 16.9781 4.89689 21.875 10.9375 21.875Z" fill="#8BC0FF"/>
</svg>
