<svg width="60" height="60" viewBox="0 0 60 60" fill="none" xmlns="http://www.w3.org/2000/svg">
<g clip-path="url(#clip0_1056_35875)">
<path d="M45.8203 41.0156C40.3279 41.0156 35.8594 36.5471 35.8594 31.0547C35.8594 25.5622 40.3279 21.0938 45.8203 21.0938C51.3128 21.0938 55.7812 25.5622 55.7812 31.0547C55.7812 36.5471 51.3128 41.0156 45.8203 41.0156ZM45.8203 25.7812C42.9125 25.7812 40.5469 28.1469 40.5469 31.0547C40.5469 33.9625 42.9125 36.3281 45.8203 36.3281C48.7281 36.3281 51.0938 33.9625 51.0938 31.0547C51.0938 28.1469 48.7281 25.7812 45.8203 25.7812ZM27.1875 57.6562C27.1875 56.3618 26.1382 55.3125 24.8438 55.3125H14.06C8.89207 55.3125 4.6875 51.1079 4.6875 45.94V14.06C4.6875 8.89207 8.89207 4.6875 14.06 4.6875H35.6298C40.7979 4.6875 45.0023 8.89207 45.0023 14.06C45.0023 15.3545 46.0516 16.4038 47.3461 16.4038C48.6405 16.4038 49.6898 15.3545 49.6898 14.06C49.69 6.30738 43.3826 0 35.6275 0H14.06C6.30738 0 0 6.30738 0 14.06V45.9398C0 53.6926 6.30738 60 14.06 60H24.8438C26.1382 60 27.1875 58.9507 27.1875 57.6562ZM31.0547 26.6016C31.0547 25.3071 30.0054 24.2578 28.7109 24.2578H17.2266C15.9321 24.2578 14.8828 25.3071 14.8828 26.6016C14.8828 27.896 15.9321 28.9453 17.2266 28.9453H28.7109C30.0054 28.9453 31.0547 27.896 31.0547 26.6016ZM31.0547 44.5312C31.0547 43.2368 30.0054 42.1875 28.7109 42.1875H17.2266C15.9321 42.1875 14.8828 43.2368 14.8828 44.5312C14.8828 45.8257 15.9321 46.875 17.2266 46.875H28.7109C30.0054 46.875 31.0547 45.8257 31.0547 44.5312ZM31.0547 35.5078C31.0547 34.2134 30.0054 33.1641 28.7109 33.1641H17.2266C15.9321 33.1641 14.8828 34.2134 14.8828 35.5078C14.8828 36.8023 15.9321 37.8516 17.2266 37.8516H28.7109C30.0054 37.8516 31.0547 36.8023 31.0547 35.5078Z" fill="#B2D5FF"/>
<path d="M57.6562 60C56.3618 60 55.3125 58.9507 55.3125 57.6562C55.3125 53.0038 51.5524 49.2188 46.9307 49.2188H44.9445C40.3226 49.2188 36.5625 53.0038 36.5625 57.6562C36.5625 58.9507 35.5132 60 34.2188 60C32.9243 60 31.875 58.9507 31.875 57.6562C31.875 50.4191 37.7379 44.5312 44.9443 44.5312H46.9305C54.1371 44.5312 60 50.4191 60 57.6562C60 58.9507 58.9507 60 57.6562 60ZM35.7422 17.5781C35.7422 16.2837 34.6929 15.2344 33.3984 15.2344H17.2266C15.9321 15.2344 14.8828 16.2837 14.8828 17.5781C14.8828 18.8726 15.9321 19.9219 17.2266 19.9219H33.3984C34.6929 19.9219 35.7422 18.8726 35.7422 17.5781Z" fill="#8BC0FF"/>
</g>
<defs>
<clipPath id="clip0_1056_35875">
<rect width="60" height="60" fill="white"/>
</clipPath>
</defs>
</svg>
