<svg width="46" height="60" viewBox="0 0 46 60" fill="none" xmlns="http://www.w3.org/2000/svg">
<path d="M23 0C18.1016 0 13.9297 3.12891 12.3945 7.5H8C3.86328 7.5 0.5 10.8633 0.5 15V52.5C0.5 56.6367 3.86328 60 8 60H38C42.1367 60 45.5 56.6367 45.5 52.5V15C45.5 10.8633 42.1367 7.5 38 7.5H33.6055C32.0703 3.12891 27.8984 0 23 0ZM23 7.5C23.9946 7.5 24.9484 7.89509 25.6516 8.59835C26.3549 9.30161 26.75 10.2554 26.75 11.25C26.75 12.2446 26.3549 13.1984 25.6516 13.9017C24.9484 14.6049 23.9946 15 23 15C22.0054 15 21.0516 14.6049 20.3484 13.9017C19.6451 13.1984 19.25 12.2446 19.25 11.25C19.25 10.2554 19.6451 9.30161 20.3484 8.59835C21.0516 7.89509 22.0054 7.5 23 7.5ZM19.25 28.125C19.25 27.0938 20.0938 26.25 21.125 26.25H24.875C25.9062 26.25 26.75 27.0938 26.75 28.125V33.75H32.375C33.4062 33.75 34.25 34.5938 34.25 35.625V39.375C34.25 40.4062 33.4062 41.25 32.375 41.25H26.75V46.875C26.75 47.9062 25.9062 48.75 24.875 48.75H21.125C20.0938 48.75 19.25 47.9062 19.25 46.875V41.25H13.625C12.5938 41.25 11.75 40.4062 11.75 39.375V35.625C11.75 34.5938 12.5938 33.75 13.625 33.75H19.25V28.125Z" fill="#B2D5FF"/>
</svg>
