<svg width="46" height="60" viewBox="0 0 46 60" fill="none" xmlns="http://www.w3.org/2000/svg">
<path d="M8 0C3.86328 0 0.5 3.36328 0.5 7.5V52.5C0.5 56.6367 3.86328 60 8 60H38C42.1367 60 45.5 56.6367 45.5 52.5V18.75H30.5C28.4258 18.75 26.75 17.0742 26.75 15V0H8ZM30.5 0V15H45.5L30.5 0ZM13.625 30H32.375C33.4062 30 34.25 30.8438 34.25 31.875C34.25 32.9062 33.4062 33.75 32.375 33.75H13.625C12.5938 33.75 11.75 32.9062 11.75 31.875C11.75 30.8438 12.5938 30 13.625 30ZM13.625 37.5H32.375C33.4062 37.5 34.25 38.3438 34.25 39.375C34.25 40.4062 33.4062 41.25 32.375 41.25H13.625C12.5938 41.25 11.75 40.4062 11.75 39.375C11.75 38.3438 12.5938 37.5 13.625 37.5ZM13.625 45H32.375C33.4062 45 34.25 45.8438 34.25 46.875C34.25 47.9062 33.4062 48.75 32.375 48.75H13.625C12.5938 48.75 11.75 47.9062 11.75 46.875C11.75 45.8438 12.5938 45 13.625 45Z" fill="#B2D5FF"/>
</svg>
