<svg width="46" height="60" viewBox="0 0 46 60" fill="none" xmlns="http://www.w3.org/2000/svg">
<path d="M23 0C18.1016 0 13.9297 3.12891 12.3945 7.5H8C3.86328 7.5 0.5 10.8633 0.5 15V52.5C0.5 56.6367 3.86328 60 8 60H38C42.1367 60 45.5 56.6367 45.5 52.5V15C45.5 10.8633 42.1367 7.5 38 7.5H33.6055C32.0703 3.12891 27.8984 0 23 0ZM23 7.5C23.9946 7.5 24.9484 7.89509 25.6516 8.59835C26.3549 9.30161 26.75 10.2554 26.75 11.25C26.75 12.2446 26.3549 13.1984 25.6516 13.9017C24.9484 14.6049 23.9946 15 23 15C22.0054 15 21.0516 14.6049 20.3484 13.9017C19.6451 13.1984 19.25 12.2446 19.25 11.25C19.25 10.2554 19.6451 9.30161 20.3484 8.59835C21.0516 7.89509 22.0054 7.5 23 7.5ZM22.4492 23.0508C23.1758 23.7773 23.1758 24.9727 22.4492 25.6992L14.9492 33.1992C14.2227 33.9258 13.0273 33.9258 12.3008 33.1992L8.55078 29.4492C7.82422 28.7227 7.82422 27.5273 8.55078 26.8008C9.27734 26.0742 10.4727 26.0742 11.1992 26.8008L13.625 29.2266L19.8008 23.0508C20.5273 22.3242 21.7227 22.3242 22.4492 23.0508ZM23 31.875C23 30.8438 23.8438 30 24.875 30H36.125C37.1562 30 38 30.8438 38 31.875C38 32.9062 37.1562 33.75 36.125 33.75H24.875C23.8438 33.75 23 32.9062 23 31.875ZM21.125 41.25H36.125C37.1562 41.25 38 42.0938 38 43.125C38 44.1562 37.1562 45 36.125 45H21.125C20.0938 45 19.25 44.1562 19.25 43.125C19.25 42.0938 20.0938 41.25 21.125 41.25ZM8.9375 43.125C8.9375 42.3791 9.23382 41.6637 9.76126 41.1363C10.2887 40.6088 11.0041 40.3125 11.75 40.3125C12.4959 40.3125 13.2113 40.6088 13.7387 41.1363C14.2662 41.6637 14.5625 42.3791 14.5625 43.125C14.5625 43.8709 14.2662 44.5863 13.7387 45.1137C13.2113 45.6412 12.4959 45.9375 11.75 45.9375C11.0041 45.9375 10.2887 45.6412 9.76126 45.1137C9.23382 44.5863 8.9375 43.8709 8.9375 43.125Z" fill="#B2D5FF"/>
</svg>
